<?xml version="1.0" encoding="utf-8"?>
<!-- Generator: Adobe Illustrator 19.0.0, SVG Export Plug-In . SVG Version: 6.00 Build 0)  -->
<svg version="1.1" id="Layer_1" xmlns="http://www.w3.org/2000/svg" xmlns:xlink="http://www.w3.org/1999/xlink" x="0px" y="0px"
	 viewBox="-158 258.4 293.8 276.6" style="enable-background:new -158 258.4 293.8 276.6;" xml:space="preserve">
<style type="text/css">
	.st0{fill:none;}
	.st1{fill:#F3F3F3;}
</style>
<g>
	<path class="st0" d="M12.7,354.1c-1,0.1-2.1-0.2-3.4-0.8c-0.8-0.4-1.6-1-2.2-1.5c-0.7-0.6-1.3-1.2-2-1.9c-0.7,0.4-1.4,1-2.1,1.7
		s-1.3,1.4-1.7,2.2c0.5,0.5,0.9,1,1.3,1.4c0.4,0.4,0.9,0.8,1.3,1.2c0.5,0.4,0.9,0.7,1.4,1c0.5,0.3,1,0.6,1.6,0.9
		c1.3,0.7,2.6,1.2,4,1.4c1.3,0.3,2.6,0.3,3.8,0c1.2-0.2,2.3-0.8,3.4-1.5s1.9-1.8,2.6-3.1c0.9-1.7,1.2-3.3,0.9-4.8
		c-0.3-1.5-1.1-2.8-2.5-3.9l8.7-5.4l-0.1-1.2l-13.6-7.2c-0.6,0.7-1.2,1.5-1.6,2.3c-0.4,0.8-0.8,1.7-1,2.6l6.5,3.4l-7.6,4.7l0.1,1.4
		c0.6,0.1,1,0.3,1.4,0.5s0.8,0.3,1.1,0.5c0.4,0.2,0.8,0.5,1.2,0.9c0.3,0.3,0.6,0.7,0.8,1.1c0.2,0.4,0.3,0.8,0.3,1.3
		c0,0.4-0.1,0.9-0.3,1.3C14.5,353.4,13.7,354,12.7,354.1z"/>
	<path class="st0" d="M-24.9,335.9l-2,3.8c0.4,0.4,0.8,0.7,1.3,0.9c0.4,0.3,0.8,0.5,1.3,0.7c0.4,0.2,0.8,0.4,1.3,0.6
		c0.5,0.2,0.9,0.4,1.4,0.5l2-3.8l1.7,0.9c0.6-0.7,1.2-1.5,1.6-2.2c0.4-0.7,0.7-1.6,1-2.5l-1.7-0.9l1.9-3.6c-0.4-0.3-0.8-0.7-1.2-0.9
		c-0.4-0.3-0.8-0.5-1.2-0.7c-0.4-0.2-0.9-0.4-1.3-0.6c-0.5-0.2-0.9-0.4-1.5-0.5l-1.9,3.6l-3.2-1.7l12.7-9.8c-0.4-1-1-1.8-1.7-2.5
		c-0.7-0.7-1.4-1.3-2.2-1.9l-18.5,13.9l0,1.3L-24.9,335.9z"/>
	<path class="st0" d="M-13.1,341.3c0.2,1.3,0.6,2.5,1.4,3.6c0.8,1.1,1.9,2,3.3,2.8c1.4,0.8,2.8,1.2,4.2,1.2c1.4,0,2.6-0.3,3.8-0.9
		c1.2-0.6,2.3-1.5,3.4-2.6c1-1.1,2-2.5,2.8-4c0.8-1.5,1.4-3.1,1.8-4.6s0.5-2.9,0.3-4.3c-0.2-1.3-0.6-2.6-1.4-3.7
		c-0.8-1.1-1.8-2.1-3.3-2.8c-1.5-0.8-2.9-1.2-4.2-1.2c-1.4,0-2.6,0.3-3.8,0.9s-2.3,1.5-3.4,2.6c-1,1.1-2,2.5-2.8,4
		c-0.8,1.5-1.4,3.1-1.8,4.5C-13.2,338.6-13.3,340-13.1,341.3z M-5.3,335.6c1-2,2-3.5,3-4.3c1-0.8,1.9-1,2.8-0.5
		c0.8,0.4,1.2,1.2,1.2,2.5c0,1.3-0.5,2.9-1.5,5c-1,2-2,3.4-3,4.2c-1,0.8-1.9,1-2.7,0.6c-0.8-0.4-1.3-1.3-1.3-2.5
		C-6.8,339.3-6.3,337.6-5.3,335.6z"/>
	
		<rect x="-71.4" y="363.4" transform="matrix(-0.8829 -0.4695 0.4695 -0.8829 -238.4191 724.4234)" class="st0" width="84.9" height="57"/>
	<rect x="44.3" y="339" transform="matrix(0.4695 -0.8829 0.8829 0.4695 -298.14 266.6885)" class="st0" width="57" height="84.9"/>
	<path class="st1" d="M-23.2,287.2c0.1-1.7-0.7-3.4-2.4-4.3l-3.4-1.8c-1.6-0.9-3.5-0.6-4.9,0.4l-0.9-0.5l-62.6,117.7l0.6,0.3
		l-28.3,53.2c-2.1-0.8-4.4,0.1-5.5,2.1l-26.2,49.2c-1.2,2.2-0.3,4.9,1.9,6.1l11.3,6c2.2,1.2,4.9,0.3,6.1-1.8l26.2-49.2
		c1.2-2.2,0.3-4.9-1.9-6.1l-0.6-0.3l28.3-53.1L72.5,489L135,371.3L-23.2,287.2z M15.1,349.7c-0.2-0.4-0.5-0.8-0.8-1.1
		c-0.3-0.3-0.7-0.6-1.2-0.9c-0.3-0.2-0.7-0.4-1.1-0.5s-0.9-0.3-1.4-0.5l-0.1-1.4l7.6-4.7l-6.5-3.4c0.3-0.9,0.6-1.8,1-2.6
		c0.4-0.8,0.9-1.5,1.6-2.3l13.6,7.2l0.1,1.2l-8.7,5.4c1.4,1.1,2.2,2.4,2.5,3.9c0.3,1.5,0,3.1-0.9,4.8c-0.7,1.3-1.6,2.4-2.6,3.1
		s-2.2,1.3-3.4,1.5c-1.2,0.2-2.5,0.2-3.8,0c-1.3-0.3-2.7-0.7-4-1.4c-0.6-0.3-1.1-0.6-1.6-0.9c-0.5-0.3-1-0.6-1.4-1
		c-0.5-0.4-0.9-0.7-1.3-1.2c-0.4-0.4-0.9-0.9-1.3-1.4c0.5-0.8,1-1.5,1.7-2.2s1.4-1.2,2.1-1.7c0.7,0.7,1.3,1.4,2,1.9
		c0.7,0.6,1.4,1.1,2.2,1.5c1.3,0.7,2.4,0.9,3.4,0.8c1-0.1,1.8-0.7,2.4-1.8c0.2-0.4,0.4-0.9,0.3-1.3
		C15.4,350.5,15.3,350.1,15.1,349.7z M-11.1,332.6c0.8-1.5,1.8-2.9,2.8-4c1-1.1,2.2-2,3.4-2.6s2.5-0.9,3.8-0.9
		c1.4,0,2.8,0.4,4.2,1.2c1.4,0.8,2.5,1.7,3.3,2.8c0.8,1.1,1.2,2.3,1.4,3.7c0.2,1.3,0.1,2.8-0.3,4.3s-1,3-1.8,4.6
		c-0.8,1.5-1.7,2.9-2.8,4c-1,1.1-2.2,2-3.4,2.6c-1.2,0.6-2.5,0.9-3.8,0.9c-1.4,0-2.8-0.4-4.2-1.2c-1.4-0.8-2.5-1.7-3.3-2.8
		c-0.8-1.1-1.2-2.3-1.4-3.6s-0.1-2.7,0.3-4.2C-12.5,335.6-11.9,334.1-11.1,332.6z M-16.7,315.3c0.8,0.6,1.5,1.2,2.2,1.9
		c0.7,0.7,1.2,1.5,1.7,2.5l-12.7,9.8l3.2,1.7l1.9-3.6c0.5,0.1,1,0.3,1.5,0.5c0.5,0.2,0.9,0.4,1.3,0.6c0.4,0.2,0.8,0.5,1.2,0.7
		c0.4,0.3,0.8,0.6,1.2,0.9l-1.9,3.6l1.7,0.9c-0.3,0.9-0.6,1.8-1,2.5c-0.4,0.7-0.9,1.5-1.6,2.2l-1.7-0.9l-2,3.8
		c-0.5-0.1-1-0.3-1.4-0.5c-0.5-0.2-0.9-0.4-1.3-0.6c-0.4-0.2-0.9-0.5-1.3-0.7c-0.4-0.3-0.8-0.6-1.3-0.9l2-3.8l-10.2-5.4l0-1.3
		L-16.7,315.3z M22,386.7L-4.8,437l-75-39.9l26.8-50.4L22,386.7l26.8-50.4l75,39.9L97,426.6L22,386.7z"/>
	<path class="st1" d="M-5.6,343.1c0.8,0.4,1.7,0.2,2.7-0.6c1-0.8,2-2.2,3-4.2c1-2,1.5-3.7,1.5-5c0-1.3-0.4-2.1-1.2-2.5
		c-0.9-0.4-1.8-0.2-2.8,0.5c-1,0.8-2,2.2-3,4.3c-1,2-1.5,3.7-1.5,4.9C-6.8,341.8-6.4,342.7-5.6,343.1z"/>
</g>
</svg>
