<?xml version="1.0" encoding="utf-8"?>
<!-- Generator: Adobe Illustrator 19.0.0, SVG Export Plug-In . SVG Version: 6.00 Build 0)  -->
<svg version="1.1" id="Layer_1" xmlns="http://www.w3.org/2000/svg" xmlns:xlink="http://www.w3.org/1999/xlink" x="0px" y="0px"
	 viewBox="30.2 293 549.7 276.6" style="enable-background:new 30.2 293 549.7 276.6;" xml:space="preserve">
<style type="text/css">
	.st0{fill:#F3F3F3;}
	.st1{clip-path:url(#SVGID_3_);fill:#F3F3F3;}
	.st2{clip-path:url(#SVGID_6_);fill:#F3F3F3;}
	.st3{clip-path:url(#SVGID_8_);fill:#FCFCFC;}
</style>
<path class="st0" d="M519.8,407.1l0.7-7.3l-5.9-3.4l0.7-6.7l-6.4-3.7l-6.6,3.4l-6-3.5l-6.6,3.4l-6-3.5l-6.6,3.4l-6-3.5l-6.6,3.4
	l-6-3.5l-6.6,3.4l-6.1-3.5l-6.6,3.4l-6.1-3.5l-6.6,3.4l-6.1-3.5l-6.7,3.5l-6.3-3.5l-6.6,3.4l-6.2-3.5l-6.6,3.5l-6.2-3.5l-6.5,3.5
	l-6.2-3.5l-6.5,3.5l-6.2-3.5l-6.5,3.5l-6.3-3.5l-6.5,3.5l-6.3-3.5l-6.5,3.5l-6.3-3.5l-6.5,3.5l-6.3-3.5l-6.5,3.5l-6.4-3.5l-6.5,3.5
	l-6.4-3.5l-6.5,3.5l-6.4-3.5L260,389l-6.4-3.5l-6.5,3.5l-6.5-3.5l-6.5,3.5l-6.5-3.5l-6.5,3.5l-6.5-3.5l-6.6,3.6l-6.7-3.6l-6.5,3.5
	l-6.6-3.5l-6.4,3.5l-6.6-3.5l-6.4,3.5l-6.6-3.5l-6.4,3.5l-6.6-3.5l-6.4,3.5l-6.7-3.5l-6.4,3.5l-6.7-3.5l-6.4,3.5l-6.7-3.5L103,389
	l0.4,7.5l6.7,3.5l0.3,6.1l-6.4,3.5l0.4,7.4l6.7,3.4l0.3,6.3l-6.3,3.4l0.3,7.3l6.6,3.4l0.3,5.9l-6.3,3.4l0.3,7.2l6.6,3.3l0.3,6
	l-6.2,3.3l0.3,7.1l6.5,3.3l0.3,5.8l-6.2,3.3l0.3,7l6.5,3.2l0.3,6l-6.1,3.3l0.3,6.9l6.4,3.2l0.3,5.6l-6.1,3.2l0.3,6.8l6.4,3.1
	l0.3,6.2l6.8,3.3l6.1-3.2l6.3,3.1l6.1-3.2l6.3,3.1l6.1-3.2l6.3,3.1l6.1-3.2l6.2,3.1l6.1-3.2l6.2,3.1l6.1-3.2l6.2,3.1l6.1-3.2
	l6.2,3.1l6.2-3.2l6.3,3.1l6.1-3.2l6.1,3.1l6.1-3.2l6.1,3.1l6.1-3.2l6.1,3.1l6.1-3.2l6.1,3.1l6.1-3.1l6,3.1l6.1-3.1l6,3.1l6.1-3.1
	l6,3.1l6.1-3.1l6,3.1l6.2-3.1l5.9,3.1l6.2-3.1l5.9,3.1l6.2-3.1l5.9,3.1l6.2-3.1l5.9,3l6.2-3.1l5.9,3l6.2-3.1l5.8,3l6.2-3.1l5.8,3
	l6.3-3.2l5.9,3.1l6.2-3.1l5.8,3l6.2-3.1l5.7,3l6.2-3.1l5.7,3l6.2-3.1l5.7,3l6.2-3.1l5.7,3l6.2-3.1l5.7,3l6.2-3.1l5.6,3l6.7-3.3
	l0.7-6.6l-5.6-3.1l0.5-5.5l6.3-3.1l0.7-6.7l-5.7-3.1l0.6-5.8l6.3-3.2l0.7-6.8l-5.7-3.2l0.6-5.6l6.4-3.2l0.7-6.9l-5.8-3.2l0.6-5.8
	l6.4-3.3l0.7-7l-5.8-3.3l0.6-5.8l6.5-3.3l0.7-7.1l-5.8-3.3l0.6-6.1l6.5-3.3l0.7-7.2l-5.9-3.4l0.6-5.9L519.8,407.1z M502.7,390.1
	l6.1-3.2l5.5,3.2l-0.6,6.2l-6.1,3.2l-5.5-3.2L502.7,390.1z M488.6,465.6l-5.9,3l-5.4-3l0.5-5.8l6-3l5.4,3L488.6,465.6z M483.3,456
	l-6,3l-5.4-3l0.5-5.8l6-3.1l5.4,3L483.3,456z M476.8,459.8l-0.5,5.8l-5.9,3l-5.4-3l0.5-5.9l6-3L476.8,459.8z M471,456l-6,3l-5.5-3
	l0.5-5.8l6-3.1l5.5,3L471,456z M464.5,459.9l-0.5,5.9l-5.9,3l-5.4-3l0.5-5.9l5.9-3L464.5,459.9z M458.7,456l-5.9,3l-5.5-3l0.4-5.8
	l6-3.1l5.5,3L458.7,456z M452.2,459.9l-0.5,5.9l-5.9,3l-5.5-3l0.4-5.9l5.9-3.1L452.2,459.9z M446.4,456l-5.9,3.1l-5.5-3l0.4-5.8
	l6-3.1l5.5,3L446.4,456z M439.9,459.9l-0.4,5.9l-5.9,3l-5.5-3l0.4-5.9l5.9-3.1L439.9,459.9z M434,456.1l-5.9,3.1l-5.5-3l0.4-5.8
	l6-3.1l5.5,3.1L434,456.1z M427.6,459.9l-0.4,5.9l-5.9,3l-5.5-3l0.4-5.9l5.9-3.1L427.6,459.9z M421.6,456.1l-6,3.1l-5.4-3l0.4-6.1
	l5.8-3l5.7,3.1L421.6,456.1z M414.9,459.9l-0.4,6.1l-5.8,3l-5.6-3.1l0.4-5.9l6-3.1L414.9,459.9z M409,456.1l-5.9,3.1l-5.6-3l0.3-5.8
	l5.9-3.1l5.6,3.1L409,456.1z M402.6,460l-0.4,5.9l-5.9,3l-5.6-3l0.3-5.9l5.9-3.1L402.6,460z M396.6,456.1l-5.9,3.1l-5.6-3l0.3-5.8
	l5.9-3.1l5.6,3.1L396.6,456.1z M390.2,460l-0.3,5.9l-5.9,3l-5.6-3l0.3-5.9l5.9-3.1L390.2,460z M384.2,456.2l-5.9,3.1l-5.6-3l0.3-5.8
	l5.9-3.1l5.6,3.1L384.2,456.2z M377.7,460.1l-0.3,5.9l-5.9,3l-5.6-3l0.3-5.9l5.9-3.1L377.7,460.1z M371.7,456.2l-5.9,3.1l-5.6-3
	l0.3-5.8l5.9-3.1l5.6,3.1L371.7,456.2z M365.3,460.1L365,466l-5.9,3l-5.6-3l0.3-5.9l5.9-3.1L365.3,460.1z M359.3,456.2l-5.9,3.1
	l-5.6-3l0.2-5.8l5.9-3.1l5.7,3.1L359.3,456.2z M352.9,460.1l-0.2,5.9l-5.9,3l-5.6-3l0.2-5.9l5.9-3.1L352.9,460.1z M346.8,456.2
	l-5.9,3.1l-5.7-3l0.2-5.8l5.9-3.1l5.7,3.1L346.8,456.2z M340.4,460.2l-0.2,5.9l-5.9,3.1l-5.7-3l0.2-5.9l5.9-3.1L340.4,460.2z
	 M334.3,456.3l-5.9,3.1l-5.7-3l0.2-5.8l5.9-3.1l5.7,3.1L334.3,456.3z M327.9,460.2l-0.2,5.9l-5.9,3.1l-5.7-3l0.2-5.9l5.9-3.1
	L327.9,460.2z M321.8,456.3l-5.9,3.1l-5.7-3l0.2-5.8l5.9-3.1l5.7,3.1L321.8,456.3z M315.4,460.2l-0.2,5.9l-5.9,3.1l-5.7-3l0.1-5.9
	l5.9-3.1L315.4,460.2z M309.3,456.3l-5.9,3.1l-5.7-3l0.1-5.8l5.9-3.1l5.7,3.1L309.3,456.3z M302.9,460.2l-0.1,5.9l-5.9,3.1l-5.7-3
	l0.1-5.9l5.9-3.1L302.9,460.2z M296.7,456.4l-5.9,3.1l-5.8-3.1l0.1-5.8l5.9-3.1l5.8,3.1L296.7,456.4z M290.4,460.3l-0.1,5.9
	l-5.8,3.1l-5.7-3l0.1-5.9l5.9-3.1L290.4,460.3z M284.2,456.4l-5.9,3.1l-5.8-3.1l0.1-5.8l5.9-3.1l5.8,3.1L284.2,456.4z M277.8,460.3
	l-0.1,5.9l-5.8,3.1l-5.8-3l0.1-5.9l5.9-3.1L277.8,460.3z M271.6,456.4l-5.9,3.1l-5.8-3.1l0-5.9l5.9-3.1l5.8,3.1L271.6,456.4z
	 M265.3,460.3l-0.1,5.9l-5.8,3.1l-5.8-3l0-5.9l5.9-3.1L265.3,460.3z M259,456.4l-5.9,3.1l-5.8-3.1l0-5.9l5.9-3.1l5.8,3.1L259,456.4z
	 M252.7,460.4l0,5.9l-5.8,3.1l-5.8-3l0-5.9l5.8-3.1L252.7,460.4z M246.4,456.5l-5.8,3.1l-5.8-3.1l0-5.9l5.9-3.1l5.9,3.1L246.4,456.5
	z M240.1,460.4l0,5.9l-5.8,3.1l-5.8-3l0-5.9l5.8-3.1L240.1,460.4z M233.8,456.5l-5.8,3.1l-5.9-3.1l0-5.9l5.9-3.1l5.9,3.1
	L233.8,456.5z M227.5,460.4l0,5.9l-5.8,3.1l-5.9-3l0-5.9l5.8-3.1L227.5,460.4z M221.1,456.5l-5.9,3.1l-5.8-3l-0.1-6.1l5.7-3l6,3.2
	L221.1,456.5z M214.6,460.4l0,6.1l-5.7,3l-6-3.1l-0.1-5.9l5.9-3.1L214.6,460.4z M208.2,456.6l-5.8,3.1l-5.9-3.1l-0.1-5.9l5.8-3.1
	l5.9,3.1L208.2,456.6z M201.9,460.5l0.1,5.9l-5.8,3.1l-5.9-3l-0.1-5.9l5.8-3.1L201.9,460.5z M195.5,456.6l-5.8,3.1l-5.9-3.1
	l-0.1-5.9l5.8-3.1l5.9,3.1L195.5,456.6z M189.2,460.5l0.1,5.9l-5.8,3.1l-5.9-3l-0.1-5.9l5.8-3.1L189.2,460.5z M182.8,456.6l-5.8,3.1
	l-6-3.1l-0.1-5.9l5.8-3.1l6,3.1L182.8,456.6z M176.5,460.6l0.1,5.9l-5.8,3.1l-5.9-3l-0.2-5.9l5.8-3.1L176.5,460.6z M170.1,456.6
	l-5.8,3.1l-6-3.1l-0.2-5.9l5.8-3.1l6,3.1L170.1,456.6z M163.8,460.6l0.2,5.9l-5.8,3.1l-6-3l-0.2-6l5.8-3.1L163.8,460.6z
	 M157.4,456.7l-5.8,3.1l-6-3.1l-0.2-5.9l5.8-3.1l6,3.1L157.4,456.7z M151.1,460.6l0.2,6l-5.8,3.1l-6-3.1l-0.2-6l5.8-3.1L151.1,460.6
	z M144.6,456.7l-5.8,3.1l-6-3.1l-0.2-5.9l5.8-3.1l6,3.1L144.6,456.7z M138.4,460.6l0.2,6l-5.8,3.1l-6-3.1l-0.2-6l5.8-3.1
	L138.4,460.6z M139.1,480.3l0.2,5.8l-5.7,3l-6-3l-0.2-5.8l5.8-3.1L139.1,480.3z M133.5,476.4l-0.2-5.9l5.8-3.1l6,3l0.2,5.9l-5.8,3.1
	L133.5,476.4z M140,480.3l5.8-3.1l6,3l0.2,5.8l-5.7,3l-5.9-3L140,480.3z M146.2,476.4l-0.2-5.9l5.8-3.1l6,3l0.2,5.9l-5.8,3.1
	L146.2,476.4z M152.7,480.2l5.8-3.1l5.9,3l0.2,5.8l-5.7,3l-5.9-3L152.7,480.2z M158.9,476.3l-0.2-5.9l5.8-3.1l5.9,3l0.1,5.9
	l-5.8,3.1L158.9,476.3z M165.3,480.2l5.8-3.1l5.9,3l0.1,5.8l-5.8,3l-5.9-3L165.3,480.2z M171.5,476.3l-0.1-5.9l5.8-3.1l5.9,3
	l0.1,5.9l-5.8,3.1L171.5,476.3z M177.9,480.2l5.8-3.1l5.9,3l0.1,5.7l-5.8,3l-5.9-3L177.9,480.2z M184.1,476.3l-0.1-5.9l5.8-3.1
	l5.9,3l0.1,5.9l-5.8,3.1L184.1,476.3z M190.5,480.1l5.8-3.1l5.9,3l0.1,5.7l-5.8,3l-5.9-3L190.5,480.1z M196.7,476.2l-0.1-5.9
	l5.8-3.1l5.9,3l0.1,5.9l-5.8,3.1L196.7,476.2z M203.1,480.1l5.9-3.1l5.7,3l0,6l-5.6,3l-6-3.1L203.1,480.1z M209.6,476.3l-0.1-6.1
	l5.7-3l5.9,3.1l0,5.9l-5.9,3.1L209.6,476.3z M215.9,480l5.8-3.1l5.8,3l0,5.7l-5.8,3l-5.8-3L215.9,480z M222.2,476.1l0-5.9l5.8-3.1
	l5.8,3l0,5.9l-5.8,3.1L222.2,476.1z M228.5,480l5.8-3l5.8,3l0,5.7l-5.8,3l-5.8-3L228.5,480z M234.7,476.1l0-5.9l5.8-3.1l5.8,3l0,5.9
	l-5.8,3L234.7,476.1z M241,479.9l5.8-3l5.8,3l0,5.7l-5.8,3l-5.8-3L241,479.9z M247.3,476l0-5.9l5.8-3.1l5.8,3l0,5.9l-5.8,3
	L247.3,476z M253.5,479.9l5.8-3l5.8,3l-0.1,5.7l-5.8,3l-5.8-3L253.5,479.9z M259.8,476l0-5.9l5.8-3.1l5.8,3l-0.1,5.9l-5.8,3
	L259.8,476z M266,479.8l5.8-3l5.7,3l-0.1,5.7l-5.8,3l-5.7-3L266,479.8z M272.3,476l0.1-5.9l5.8-3.1l5.7,3l-0.1,5.9l-5.8,3L272.3,476
	z M278.5,479.8l5.8-3l5.7,3l-0.1,5.7l-5.8,3l-5.7-3L278.5,479.8z M284.8,475.9l0.1-5.9l5.8-3.1l5.7,3l-0.1,5.9l-5.8,3L284.8,475.9z
	 M290.9,479.8l5.8-3l5.7,3l-0.1,5.7l-5.8,3l-5.7-3L290.9,479.8z M297.2,475.9l0.1-5.9l5.9-3.1l5.7,3l-0.2,5.9l-5.8,3L297.2,475.9z
	 M303.4,479.7l5.8-3l5.7,3l-0.2,5.7l-5.8,3l-5.7-3L303.4,479.7z M309.7,475.8l0.2-5.9l5.9-3.1l5.7,3l-0.2,5.9l-5.8,3L309.7,475.8z
	 M315.8,479.7l5.8-3l5.7,3l-0.2,5.7l-5.8,3l-5.6-3L315.8,479.7z M322.1,475.8l0.2-5.9l5.9-3.1l5.7,3l-0.2,5.9l-5.8,3L322.1,475.8z
	 M328.2,479.6l5.8-3l5.6,3l-0.2,5.7l-5.8,3l-5.6-3L328.2,479.6z M334.5,475.8l0.2-5.9l5.9-3l5.6,3l-0.2,5.8l-5.9,3L334.5,475.8z
	 M340.6,479.6l5.9-3l5.6,3l-0.2,5.7l-5.8,3l-5.6-3L340.6,479.6z M346.9,475.7l0.2-5.8l5.9-3l5.6,3l-0.3,5.8l-5.9,3L346.9,475.7z
	 M353,479.5l5.9-3l5.6,3l-0.3,5.7l-5.8,3l-5.6-3L353,479.5z M359.3,475.7l0.3-5.8l5.9-3l5.6,3l-0.3,5.8l-5.9,3L359.3,475.7z
	 M365.3,479.5l5.9-3l5.6,3l-0.3,5.7l-5.8,3l-5.6-3L365.3,479.5z M371.7,475.6l0.3-5.8l5.9-3l5.6,3l-0.3,5.8l-5.9,3L371.7,475.6z
	 M377.7,479.5l5.9-3l5.5,3l-0.3,5.7l-5.9,3l-5.5-3L377.7,479.5z M384,475.6l0.3-5.8l5.9-3l5.6,3l-0.3,5.8l-5.9,3L384,475.6z
	 M390,479.4l5.9-3l5.5,3l-0.3,5.7l-5.9,3l-5.5-3L390,479.4z M396.4,475.6l0.3-5.8l5.9-3l5.5,3l-0.4,5.8l-5.9,3L396.4,475.6z
	 M402.3,479.4l6-3.1l5.4,2.9l-0.4,5.9l-5.7,2.9l-5.6-3L402.3,479.4z M408.9,475.6l0.4-6l5.8-3l5.6,3l-0.4,5.8l-6,3.1L408.9,475.6z
	 M414.8,479.3l5.9-3l5.5,3l-0.4,5.7l-5.9,3l-5.5-3L414.8,479.3z M421.2,475.5l0.4-5.8l5.9-3l5.5,3l-0.4,5.8l-5.9,3L421.2,475.5z
	 M427.1,479.3l5.9-3l5.5,3l-0.4,5.7l-5.9,3l-5.5-3L427.1,479.3z M433.5,475.4l0.4-5.8l5.9-3l5.5,3l-0.4,5.8l-5.9,3L433.5,475.4z
	 M439.4,479.2l5.9-3l5.4,3l-0.4,5.7l-5.9,3l-5.4-3L439.4,479.2z M445.8,475.4l0.4-5.8l5.9-3l5.4,3l-0.5,5.8l-5.9,3L445.8,475.4z
	 M451.6,479.2l5.9-3l5.4,3l-0.5,5.7l-5.9,3l-5.4-3L451.6,479.2z M458,475.4l0.5-5.8l5.9-3l5.4,3l-0.5,5.8l-5.9,3L458,475.4z
	 M463.8,479.2l5.9-3l5.4,3l-0.5,5.7l-5.9,3l-5.4-2.9L463.8,479.2z M470.3,475.3l0.5-5.8l5.9-3l5.4,3l-0.5,5.8l-5.9,3L470.3,475.3z
	 M476,479.1l5.9-3l5.4,3l-0.5,5.7l-5.9,3l-5.4-2.9L476,479.1z M482.5,475.3l0.5-5.8l5.9-3l5.4,3l-0.5,5.8l-5.9,3L482.5,475.3z
	 M489.6,459l-5.4-3l0.5-5.8l6-3.1l5.4,3l-0.5,5.8L489.6,459z M486,436.5l0.5-6.1l6-3.1l5.5,3.1l-0.6,6.1l-6,3.1L486,436.5z
	 M490.9,440.4l-0.5,5.8l-6,3.1l-5.4-3l0.5-5.8l6-3.1L490.9,440.4z M485.1,436.5l-6,3.1l-5.5-3.1l0.5-6.1l6-3.1l5.5,3.1L485.1,436.5z
	 M478.5,440.4l-0.5,5.8l-6,3.1l-5.5-3l0.5-5.8l6-3.1L478.5,440.4z M472.7,436.5l-6,3.1l-5.5-3.1l0.5-6.1l6-3.1l5.5,3.1L472.7,436.5z
	 M466.1,440.4l-0.5,5.8l-6,3.1l-5.5-3l0.5-5.8l6-3.1L466.1,440.4z M460.3,436.5l-6,3.1l-5.5-3.1l0.5-6.1l6-3.1l5.5,3.1L460.3,436.5z
	 M453.8,440.4l-0.5,5.8l-6,3.1l-5.5-3.1l0.4-5.8l6-3.1L453.8,440.4z M447.8,436.5l-6,3.1l-5.5-3.1l0.4-6.1l6-3.1l5.5,3.1
	L447.8,436.5z M441.3,440.4l-0.4,5.8l-6,3.1l-5.5-3.1l0.4-5.8l6-3.1L441.3,440.4z M435.4,436.5l-6,3.1l-5.6-3.1l0.4-6.1l6-3.1
	l5.6,3.1L435.4,436.5z M428.9,440.4l-0.4,5.8l-6,3.1l-5.5-3.1l0.4-5.8l6-3.1L428.9,440.4z M423,436.5l-6.1,3.1l-5.5-3l0.4-6.2l6-3.1
	l5.6,3.1L423,436.5z M416.2,440.4l-0.4,6.1l-5.8,3l-5.7-3.1l0.4-5.8l6.1-3.1L416.2,440.4z M410.2,436.5l-6,3.1l-5.6-3.1l0.4-6.1
	l6-3.1l5.6,3.1L410.2,436.5z M403.7,440.5l-0.4,5.8l-5.9,3.1l-5.6-3.1l0.3-5.9l6-3.1L403.7,440.5z M397.7,436.5l-6,3.1l-5.6-3.1
	l0.3-6.1l6-3.1l5.6,3.1L397.7,436.5z M391.2,440.5l-0.3,5.9l-5.9,3.1l-5.6-3.1l0.3-5.9l6-3.1L391.2,440.5z M385.2,436.6l-6,3.1
	l-5.6-3.1l0.3-6.1l6-3.1l5.7,3.1L385.2,436.6z M378.8,440.5l-0.3,5.9l-5.9,3.1l-5.6-3.1l0.3-5.9l5.9-3.1L378.8,440.5z M372.7,436.6
	l-6,3.1l-5.7-3.1l0.3-6.1l6-3.1l5.7,3.1L372.7,436.6z M366.2,440.5l-0.3,5.9l-5.9,3.1l-5.7-3.1l0.2-5.9l5.9-3.1L366.2,440.5z
	 M360.1,436.6l-5.9,3.1l-5.7-3.1l0.2-6.1l6-3.1l5.7,3.1L360.1,436.6z M353.7,440.5l-0.2,5.9l-5.9,3.1l-5.7-3.1l0.2-5.9l5.9-3.1
	L353.7,440.5z M347.6,436.6l-5.9,3.1l-5.7-3.1l0.2-6.1l6-3.1l5.7,3.1L347.6,436.6z M341.2,440.6l-0.2,5.9l-5.9,3.1l-5.7-3.1l0.2-5.9
	l5.9-3.1L341.2,440.6z M335,436.6l-5.9,3.1l-5.7-3.1l0.2-6.1l6-3.1l5.7,3.1L335,436.6z M328.6,440.6l-0.2,5.9l-5.9,3.1l-5.7-3.1
	l0.2-5.9l5.9-3.1L328.6,440.6z M322.4,436.6l-5.9,3.1l-5.8-3.1l0.2-6.1l5.9-3.1l5.8,3.1L322.4,436.6z M316,440.6l-0.2,5.9l-5.9,3.1
	l-5.7-3.1l0.1-5.9l5.9-3.1L316,440.6z M309.8,436.6l-5.9,3.1l-5.8-3.1l0.1-6.1l5.9-3.1l5.8,3.1L309.8,436.6z M303.4,440.6l-0.1,5.9
	l-5.9,3.1l-5.8-3.1l0.1-5.9l5.9-3.1L303.4,440.6z M297.2,436.7l-5.9,3.1l-5.8-3.1l0.1-6.1l5.9-3.1l5.8,3.1L297.2,436.7z
	 M290.8,440.6l-0.1,5.9l-5.9,3.1l-5.8-3.1l0.1-5.9l5.9-3.1L290.8,440.6z M284.5,436.7l-5.9,3.1l-5.8-3.1l0.1-6.1l5.9-3.1l5.8,3.1
	L284.5,436.7z M278.1,440.6l-0.1,5.9l-5.9,3.1l-5.8-3.1l0.1-5.9l5.9-3.1L278.1,440.6z M271.9,436.7l-5.9,3.1l-5.8-3.1l0.1-6.1
	l5.9-3.1l5.9,3.1L271.9,436.7z M265.5,440.7l-0.1,5.9l-5.9,3.1l-5.8-3.1l0-5.9l5.9-3.1L265.5,440.7z M259.2,436.7l-5.9,3.1l-5.9-3.1
	l0-6.1l5.9-3.1l5.9,3.1L259.2,436.7z M252.8,440.7l0,5.9l-5.9,3.1l-5.9-3.1l0-5.9l5.9-3.1L252.8,440.7z M246.5,436.7l-5.9,3.1
	l-5.9-3.1l0-6.1l5.9-3.1l5.9,3.1L246.5,436.7z M240.1,440.7l0,5.9l-5.9,3.1l-5.9-3.1l0-5.9l5.9-3.1L240.1,440.7z M233.8,436.7
	l-5.9,3.1l-5.9-3.1l0-6.1l5.9-3.1l5.9,3.1L233.8,436.7z M227.4,440.7l0,5.9l-5.9,3.1l-5.9-3.1l0-5.9l5.9-3.1L227.4,440.7z
	 M221,436.7l-6,3.2l-5.8-3.1l-0.1-6.3l5.9-3.1l5.9,3.1L221,436.7z M214.4,440.6l0.1,6.2l-5.7,3l-6.1-3.2l-0.1-5.9l6-3.2L214.4,440.6
	z M208,436.8l-5.9,3.1l-6-3.1l-0.1-6.2l5.9-3.1l6,3.1L208,436.8z M201.7,440.7l0.1,5.9l-5.8,3.1l-5.9-3.1l-0.1-5.9l5.9-3.1
	L201.7,440.7z M195.2,436.8l-5.9,3.1l-6-3.1l-0.1-6.2l5.9-3.2l6,3.1L195.2,436.8z M188.9,440.8l0.1,5.9l-5.8,3.1l-6-3.1l-0.1-5.9
	l5.9-3.1L188.9,440.8z M182.4,436.8l-5.9,3.1l-6-3.1l-0.1-6.2l5.9-3.2l6,3.1L182.4,436.8z M176.1,440.8l0.1,5.9l-5.8,3.1l-6-3.1
	l-0.2-5.9l5.9-3.1L176.1,440.8z M169.6,436.8l-5.9,3.1l-6-3.1l-0.2-6.2l5.9-3.2l6,3.1L169.6,436.8z M163.3,440.8l0.2,5.9l-5.8,3.1
	l-6-3.1l-0.2-5.9l5.8-3.1L163.3,440.8z M156.8,436.8l-5.8,3.1l-6-3.1l-0.2-6.2l5.9-3.2l6.1,3.1L156.8,436.8z M150.5,440.8l0.2,5.9
	l-5.8,3.1l-6-3.1l-0.2-5.9l5.8-3.1L150.5,440.8z M143.9,436.8l-5.8,3.1l-6.1-3.1l-0.2-6.2l5.9-3.2l6.1,3.2L143.9,436.8z
	 M137.7,440.8l0.2,5.9l-5.8,3.1l-6.1-3.1l-0.2-5.9l5.8-3.1L137.7,440.8z M131.1,436.8l-5.8,3.1l-6.1-3.1l-0.3-6.2l5.9-3.2l6.1,3.2
	L131.1,436.8z M131.6,450.8l0.2,5.9l-5.8,3.1l-6-3.1l-0.3-5.9l5.8-3.1L131.6,450.8z M120.6,470.5l5.8-3.1l6,3.1l0.2,5.9l-5.8,3.1
	l-6-3L120.6,470.5z M133.1,490l0.2,5.7l-5.7,3l-6-3l-0.2-5.7l5.7-3L133.1,490z M128.1,499.6l5.7-3l5.9,3l0.2,5.9l-5.7,3l-5.9-3
	L128.1,499.6z M134.3,495.7L134,490l5.7-3l5.9,3l0.2,5.7l-5.7,3L134.3,495.7z M140.7,499.5l5.7-3l5.9,3l0.2,5.9l-5.7,3l-5.9-3
	L140.7,499.5z M146.8,495.7l-0.2-5.7l5.7-3l5.9,3l0.2,5.7l-5.7,3L146.8,495.7z M153.3,499.5l5.7-3l5.9,3l0.2,5.9l-5.7,3l-5.9-2.9
	L153.3,499.5z M159.4,495.6l-0.2-5.7l5.7-3l5.9,3l0.1,5.7l-5.7,3L159.4,495.6z M165.8,499.4l5.7-3l5.9,3l0.1,5.9l-5.7,3l-5.9-2.9
	L165.8,499.4z M172,495.6l-0.1-5.7l5.8-3l5.9,3l0.1,5.7l-5.7,3L172,495.6z M178.3,499.4l5.7-3l5.8,3l0.1,5.9l-5.7,3l-5.8-2.9
	L178.3,499.4z M184.5,495.5l-0.1-5.7l5.8-3l5.9,3l0.1,5.7l-5.7,3L184.5,495.5z M190.8,499.3l5.7-3l5.8,3l0.1,5.9l-5.7,3l-5.8-2.9
	L190.8,499.3z M197,495.5l-0.1-5.7l5.8-3l5.8,3l0.1,5.7l-5.7,3L197,495.5z M203.3,499.3l5.9-3.1l5.7,2.9l0,6l-5.7,3l-5.8-2.9
	L203.3,499.3z M209.8,495.5l-0.1-6l5.6-3l6,3.1l0,5.7l-5.9,3.1L209.8,495.5z M216.1,499.2l5.8-3l5.8,3l0,5.8l-5.7,3l-5.8-2.9
	L216.1,499.2z M222.3,495.4l0-5.7l5.8-3l5.8,3l0,5.7l-5.8,3L222.3,495.4z M228.5,499.1l5.8-3l5.8,3l0,5.8l-5.7,3l-5.8-2.9
	L228.5,499.1z M234.7,495.3l0-5.7l5.8-3l5.8,3l0,5.7l-5.8,3L234.7,495.3z M241,499.1l5.8-3l5.7,3l0,5.8l-5.7,3l-5.7-2.9L241,499.1z
	 M247.2,495.2l0-5.7l5.8-3l5.7,3l0,5.7l-5.8,3L247.2,495.2z M253.4,499l5.8-3l5.7,3l-0.1,5.8l-5.8,3l-5.7-2.9L253.4,499z
	 M259.6,495.2l0-5.7l5.8-3l5.7,3l-0.1,5.7l-5.8,3L259.6,495.2z M265.8,499l5.8-3l5.7,3l-0.1,5.8l-5.8,3l-5.7-2.9L265.8,499z
	 M272,495.1l0.1-5.7l5.8-3l5.7,3l-0.1,5.7l-5.8,3L272,495.1z M278.2,498.9l5.8-3l5.7,3l-0.1,5.8l-5.8,3l-5.7-2.9L278.2,498.9z
	 M284.4,495.1l0.1-5.7l5.8-3l5.7,3l-0.1,5.7l-5.8,3L284.4,495.1z M290.6,498.9l5.8-3l5.7,3l-0.1,5.8l-5.8,3l-5.6-2.9L290.6,498.9z
	 M296.8,495l0.1-5.7l5.8-3l5.7,3l-0.1,5.7l-5.8,3L296.8,495z M302.9,498.8l5.8-3l5.6,2.9l-0.2,5.8l-5.8,3l-5.6-2.9L302.9,498.8z
	 M309.2,495l0.2-5.7l5.8-3l5.6,3l-0.2,5.7l-5.8,3L309.2,495z M315.2,498.7l5.8-3l5.6,2.9l-0.2,5.8l-5.8,3l-5.6-2.9L315.2,498.7z
	 M321.5,494.9l0.2-5.7l5.8-3l5.6,3l-0.2,5.7l-5.8,3L321.5,494.9z M327.6,498.7l5.8-3l5.6,2.9l-0.2,5.8l-5.8,3l-5.6-2.9L327.6,498.7z
	 M333.9,494.9l0.2-5.7l5.8-3l5.6,3l-0.2,5.7l-5.8,3L333.9,494.9z M339.9,498.6l5.8-3l5.6,2.9l-0.2,5.8l-5.8,3l-5.6-2.9L339.9,498.6z
	 M346.2,494.8l0.2-5.7l5.8-3l5.6,3l-0.3,5.7l-5.8,3L346.2,494.8z M352.2,498.6l5.8-3l5.5,2.9l-0.3,5.8l-5.8,3l-5.5-2.9L352.2,498.6z
	 M358.5,494.8l0.3-5.7l5.8-3l5.6,3l-0.3,5.7l-5.8,3L358.5,494.8z M364.4,498.5l5.8-3l5.5,2.9l-0.3,5.8l-5.8,3l-5.5-2.9L364.4,498.5z
	 M370.7,494.7l0.3-5.7l5.8-3l5.5,3l-0.3,5.7l-5.8,3L370.7,494.7z M376.7,498.5l5.8-3l5.5,2.9l-0.3,5.8l-5.8,3l-5.5-2.9L376.7,498.5z
	 M383,494.7l0.3-5.6l5.9-3l5.5,3l-0.3,5.6l-5.8,3L383,494.7z M388.9,498.4l5.8-3l5.5,2.9l-0.3,5.8l-5.8,3l-5.5-2.9L388.9,498.4z
	 M395.3,494.6l0.3-5.6l5.9-3l5.5,3l-0.4,5.6l-5.8,3L395.3,494.6z M401.1,498.4l5.9-3l5.4,2.9l-0.4,5.9l-5.8,3l-5.5-2.9L401.1,498.4z
	 M407.7,494.7l0.4-5.9l5.7-2.9l5.6,3l-0.4,5.6l-6,3L407.7,494.7z M413.6,498.3l5.8-3l5.4,2.9l-0.4,5.8l-5.8,3l-5.4-2.9L413.6,498.3z
	 M420,494.5l0.4-5.6l5.9-3l5.5,3l-0.4,5.6l-5.9,3L420,494.5z M425.8,498.2l5.9-3l5.4,2.9l-0.4,5.8l-5.8,3l-5.4-2.9L425.8,498.2z
	 M432.2,494.4l0.4-5.6l5.9-3l5.4,3l-0.4,5.6l-5.9,3L432.2,494.4z M438,498.2l5.9-3l5.4,2.9l-0.5,5.8l-5.8,3l-5.4-2.9L438,498.2z
	 M444.3,494.4l0.4-5.6l5.9-3l5.4,2.9l-0.5,5.6l-5.9,3L444.3,494.4z M450.1,498.1l5.9-3l5.4,2.9l-0.5,5.8l-5.8,3l-5.4-2.9
	L450.1,498.1z M456.5,494.3l0.5-5.6l5.9-3l5.4,2.9l-0.5,5.6l-5.9,3L456.5,494.3z M462.3,498.1l5.9-3l5.4,2.9l-0.5,5.8l-5.8,3
	l-5.4-2.9L462.3,498.1z M468.6,494.3l0.5-5.6l5.9-3l5.4,2.9l-0.5,5.6l-5.9,3L468.6,494.3z M474.4,498l5.9-3l5.3,2.9l-0.5,5.8l-5.9,3
	l-5.3-2.9L474.4,498z M480.8,494.2l0.5-5.6l5.9-3l5.3,2.9l-0.5,5.6l-5.9,3L480.8,494.2z M486.5,498l5.9-3l5.3,2.9l-0.6,5.8l-5.9,3
	l-5.3-2.9L486.5,498z M487.7,484.7l0.5-5.7l5.9-3l5.4,3l-0.5,5.7l-5.9,3L487.7,484.7z M500.8,465.6l-5.9,3l-5.4-3l0.5-5.8l6-3l5.4,3
	L500.8,465.6z M491.3,446.2l0.5-5.8l6-3.1l5.4,3.1l-0.6,5.8l-6,3.1L491.3,446.2z M493.1,426.5l0.6-6.1l6.1-3.1l5.5,3.1l-0.6,6.1
	l-6,3.1L493.1,426.5z M499.3,416.4l-6.1,3.1l-5.5-3.1l0.5-5.9l6.1-3.1l5.5,3.1L499.3,416.4z M492.7,420.4l-0.6,6.1l-6,3.1l-5.5-3.1
	l0.5-6.1l6-3.1L492.7,420.4z M486.9,416.4l-6,3.1l-5.5-3.1l0.5-6l6.1-3.1l5.5,3.1L486.9,416.4z M480.3,420.4l-0.5,6.1l-6,3.1
	l-5.5-3.1l0.5-6.1l6-3.1L480.3,420.4z M474.4,416.4l-6,3.1l-5.5-3.1l0.5-6l6.1-3.1l5.5,3.1L474.4,416.4z M467.8,420.4l-0.5,6.1
	l-6,3.1l-5.5-3.1l0.5-6.1l6-3.1L467.8,420.4z M461.9,416.4l-6,3.1l-5.5-3.1l0.5-6l6.1-3.1l5.6,3.1L461.9,416.4z M455.3,420.4
	l-0.5,6.1l-6,3.1l-5.5-3.1l0.5-6.1l6-3.1L455.3,420.4z M449.4,416.4l-6,3.1l-5.6-3.1l0.4-6l6-3.1l5.6,3.2L449.4,416.4z M442.8,420.4
	l-0.5,6.1l-6,3.1l-5.6-3.1l0.4-6.1l6-3.1L442.8,420.4z M436.8,416.4l-6,3.1l-5.6-3.1l0.4-6l6-3.1l5.6,3.2L436.8,416.4z M430.3,420.4
	l-0.4,6.1l-6,3.1l-5.6-3.1l0.4-6.1l6-3.1L430.3,420.4z M424.3,416.4l-6.1,3.2l-5.5-3.1l0.4-6.2l5.9-3.1l5.8,3.2L424.3,416.4z
	 M417.5,420.3l-0.4,6.2l-6,3.1l-5.6-3.1l0.4-6.1l6.1-3.2L417.5,420.3z M411.5,416.4l-6,3.1l-5.6-3.1l0.3-6l6-3.2l5.6,3.2
	L411.5,416.4z M404.9,420.4l-0.4,6.1l-6,3.1l-5.6-3.1l0.3-6.1l6-3.1L404.9,420.4z M398.9,416.4l-6,3.1l-5.7-3.1l0.3-6l6-3.2l5.7,3.2
	L398.9,416.4z M392.4,420.4l-0.3,6.1l-6,3.1l-5.7-3.1l0.3-6.1l6-3.1L392.4,420.4z M386.3,416.4l-6,3.1l-5.7-3.1l0.3-6l6-3.2l5.7,3.2
	L386.3,416.4z M379.8,420.4l-0.3,6.1l-6,3.1l-5.7-3.1l0.3-6.1l6-3.1L379.8,420.4z M373.7,416.4l-6,3.1l-5.7-3.1l0.3-6l6-3.2l5.7,3.2
	L373.7,416.4z M367.2,420.4l-0.3,6.1l-6,3.1l-5.7-3.1l0.3-6.1l6-3.1L367.2,420.4z M361,416.4l-6,3.1l-5.7-3.1l0.2-6l6-3.2l5.7,3.2
	L361,416.4z M354.6,420.4l-0.3,6.1l-6,3.1l-5.7-3.1l0.2-6.2l6-3.1L354.6,420.4z M348.4,416.4l-6,3.1l-5.7-3.1l0.2-6l6-3.2l5.8,3.2
	L348.4,416.4z M341.9,420.4l-0.2,6.2l-6,3.1l-5.7-3.1l0.2-6.2l6-3.1L341.9,420.4z M335.7,416.4l-6,3.1l-5.8-3.1l0.2-6l6-3.2l5.8,3.2
	L335.7,416.4z M329.3,420.4l-0.2,6.2l-6,3.1l-5.8-3.1l0.2-6.2l6-3.1L329.3,420.4z M323,416.4l-6,3.1l-5.8-3.1l0.2-6l6-3.2l5.8,3.2
	L323,416.4z M316.6,420.4l-0.2,6.2l-5.9,3.1l-5.8-3.1l0.2-6.2l6-3.2L316.6,420.4z M310.3,416.4l-6,3.2l-5.8-3.2l0.1-6l6-3.2l5.8,3.2
	L310.3,416.4z M303.9,420.4l-0.1,6.2l-5.9,3.1l-5.8-3.1l0.1-6.2l6-3.2L303.9,420.4z M297.6,416.4l-6,3.2l-5.8-3.2l0.1-6l6-3.2
	l5.8,3.2L297.6,416.4z M291.2,420.4l-0.1,6.2l-5.9,3.1l-5.8-3.1l0.1-6.2l6-3.2L291.2,420.4z M284.9,416.4l-6,3.2l-5.9-3.2l0.1-6
	l6-3.2l5.9,3.2L284.9,416.4z M278.4,420.4l-0.1,6.2l-5.9,3.1l-5.9-3.1l0.1-6.2l5.9-3.2L278.4,420.4z M272.1,416.4l-5.9,3.2l-5.9-3.2
	l0.1-6l6-3.2l5.9,3.2L272.1,416.4z M265.7,420.4l-0.1,6.2l-5.9,3.1l-5.9-3.1l0-6.2l5.9-3.2L265.7,420.4z M259.3,416.4l-5.9,3.2
	l-5.9-3.2l0-6l6-3.2l5.9,3.2L259.3,416.4z M252.9,420.4l0,6.2l-5.9,3.1l-5.9-3.1l0-6.2l5.9-3.2L252.9,420.4z M246.5,416.4l-5.9,3.2
	l-5.9-3.2l0-6l6-3.2l5.9,3.2L246.5,416.4z M240.1,420.4l0,6.2l-5.9,3.1l-5.9-3.1l0-6.2l5.9-3.2L240.1,420.4z M233.7,416.4l-5.9,3.2
	l-6-3.2l0-6l5.9-3.2l6,3.2L233.7,416.4z M227.3,420.4l0,6.2l-5.9,3.1l-5.9-3.1l0-6.2l5.9-3.2L227.3,420.4z M220.9,416.4l-6,3.2
	l-5.9-3.1l-0.1-6.3l5.8-3.1l6.1,3.3L220.9,416.4z M214.2,420.3l0.1,6.3l-5.9,3.1l-6-3.1l-0.1-6.2l6-3.2L214.2,420.3z M207.8,416.4
	l-5.9,3.2l-6-3.2l-0.1-6l5.9-3.2l6,3.2L207.8,416.4z M201.4,420.4l0.1,6.2l-5.9,3.2l-6-3.1l-0.1-6.2l5.9-3.2L201.4,420.4z
	 M194.9,416.4l-5.9,3.2l-6-3.2l-0.1-6l5.9-3.2l6,3.2L194.9,416.4z M188.5,420.4l0.1,6.2l-5.9,3.2l-6-3.1l-0.1-6.2l5.9-3.2
	L188.5,420.4z M182,416.4l-5.9,3.2l-6-3.2l-0.1-6.1l5.9-3.2l6.1,3.2L182,416.4z M175.7,420.4l0.1,6.2l-5.9,3.2l-6-3.1l-0.2-6.2
	l5.9-3.2L175.7,420.4z M169.1,416.4l-5.9,3.2l-6.1-3.2l-0.2-6.1l5.9-3.2l6.1,3.2L169.1,416.4z M162.8,420.4l0.2,6.2l-5.9,3.2
	l-6.1-3.2l-0.2-6.2l5.9-3.2L162.8,420.4z M156.2,416.4l-5.9,3.2l-6.1-3.2l-0.2-6.1l5.9-3.2l6.1,3.2L156.2,416.4z M149.9,420.4
	l0.2,6.2l-5.9,3.2l-6.1-3.2l-0.2-6.2l5.9-3.2L149.9,420.4z M143.3,416.4l-5.9,3.2l-6.1-3.2l-0.2-6.1l5.9-3.2l6.1,3.2L143.3,416.4z
	 M136.9,420.4l0.2,6.2l-5.9,3.2l-6.1-3.2l-0.3-6.2l5.9-3.2L136.9,420.4z M130.3,416.4l-5.9,3.2l-6.1-3.2l-0.3-6.1l5.9-3.2l6.1,3.2
	L130.3,416.4z M124,420.4l0.3,6.2l-5.9,3.2l-6.1-3.2l-0.3-6.2l5.9-3.2L124,420.4z M124.8,440.8l0.2,5.9l-5.8,3.1l-6.1-3.1l-0.3-5.9
	l5.8-3.1L124.8,440.8z M125.6,460.7l0.2,6l-5.8,3.1l-6-3.1l-0.3-6l5.8-3.1L125.6,460.7z M126.4,480.3l0.2,5.8l-5.7,3l-6-3l-0.3-5.8
	l5.7-3.1L126.4,480.3z M127.2,499.6l0.2,5.9l-5.7,3l-5.9-3l-0.3-5.9l5.7-3L127.2,499.6z M128,518.9l0.2,5.6l-5.7,3l-5.9-2.9
	l-0.3-5.6l5.7-3L128,518.9z M122.5,515.1l-0.2-5.8l5.7-3l5.9,3l0.2,5.8l-5.7,3L122.5,515.1z M128.9,518.9l5.7-3l5.9,2.9l0.2,5.6
	l-5.7,3l-5.9-2.9L128.9,518.9z M135,515l-0.2-5.8l5.7-3l5.9,2.9l0.2,5.8l-5.7,3L135,515z M141.4,518.8l5.7-3l5.9,2.9l0.2,5.6l-5.7,3
	l-5.9-2.9L141.4,518.8z M147.5,515l-0.2-5.8l5.7-3l5.9,2.9l0.2,5.8l-5.7,3L147.5,515z M153.8,518.7l5.7-3l5.9,2.9l0.1,5.6l-5.7,3
	l-5.8-2.9L153.8,518.7z M160,514.9l-0.2-5.8l5.7-3l5.9,2.9l0.1,5.8l-5.7,3L160,514.9z M166.3,518.6l5.7-3l5.8,2.9l0.1,5.6l-5.7,3
	l-5.8-2.9L166.3,518.6z M172.4,514.8l-0.1-5.8l5.7-3l5.8,2.9l0.1,5.8l-5.7,3L172.4,514.8z M178.7,518.6l5.7-3l5.8,2.9l0.1,5.6
	l-5.7,3l-5.8-2.9L178.7,518.6z M184.9,514.8l-0.1-5.8l5.7-3l5.8,2.9l0.1,5.8l-5.7,3L184.9,514.8z M191.2,518.5l5.7-3l5.8,2.9
	l0.1,5.6l-5.7,3l-5.8-2.9L191.2,518.5z M197.3,514.7l-0.1-5.8l5.7-3l5.8,2.9l0.1,5.8l-5.7,3L197.3,514.7z M203.6,518.4l5.8-3
	l5.7,2.9l0,5.8l-5.6,2.9l-5.9-3L203.6,518.4z M210,514.7l-0.1-5.9l5.7-3l5.8,2.9l0,5.8l-5.8,3L210,514.7z M216.2,518.4l5.7-3
	l5.7,2.9l0,5.6l-5.7,3l-5.7-2.9L216.2,518.4z M222.4,514.6l0-5.8l5.7-3l5.8,2.9l0,5.8l-5.7,3L222.4,514.6z M228.6,518.3l5.7-3
	l5.7,2.9l0,5.6l-5.7,3l-5.7-2.9L228.6,518.3z M234.8,514.5l0-5.8l5.7-3l5.7,2.9l0,5.8l-5.7,3L234.8,514.5z M240.9,518.2l5.7-3
	l5.7,2.9l0,5.6l-5.7,3l-5.7-2.9L240.9,518.2z M247.1,514.4l0-5.8l5.7-3l5.7,2.9l0,5.8l-5.7,3L247.1,514.4z M253.3,518.2l5.7-3
	l5.7,2.9l-0.1,5.6l-5.7,3l-5.7-2.9L253.3,518.2z M259.5,514.4l0-5.8l5.8-3l5.7,2.9l-0.1,5.8l-5.7,3L259.5,514.4z M265.6,518.1l5.7-3
	l5.7,2.9l-0.1,5.6l-5.7,3l-5.6-2.9L265.6,518.1z M271.8,514.3l0.1-5.8l5.8-3l5.7,2.9l-0.1,5.8l-5.7,3L271.8,514.3z M277.9,518l5.7-3
	l5.6,2.9l-0.1,5.6l-5.7,3l-5.6-2.9L277.9,518z M284.1,514.2l0.1-5.8l5.8-3l5.6,2.9l-0.1,5.8l-5.7,3L284.1,514.2z M290.2,518l5.7-3
	l5.6,2.9l-0.1,5.6l-5.7,2.9l-5.6-2.9L290.2,518z M296.4,514.2l0.1-5.8l5.8-3l5.6,2.9l-0.2,5.8l-5.8,3L296.4,514.2z M302.4,517.9
	l5.8-3l5.6,2.9l-0.2,5.6l-5.7,2.9l-5.6-2.9L302.4,517.9z M308.7,514.1l0.2-5.8l5.8-3l5.6,2.9L320,514l-5.8,3L308.7,514.1z
	 M314.7,517.8l5.8-3l5.6,2.9l-0.2,5.5l-5.7,2.9l-5.6-2.9L314.7,517.8z M320.9,514l0.2-5.8l5.8-3l5.6,2.9l-0.2,5.8l-5.8,3L320.9,514z
	 M326.9,517.7l5.8-3l5.6,2.9l-0.2,5.5l-5.7,2.9l-5.5-2.9L326.9,517.7z M333.2,514l0.2-5.8l5.8-3l5.6,2.9l-0.2,5.8l-5.8,3L333.2,514z
	 M339.1,517.7l5.8-3l5.5,2.9l-0.2,5.5l-5.8,2.9l-5.5-2.9L339.1,517.7z M345.4,513.9l0.2-5.8l5.8-3l5.5,2.9l-0.3,5.8l-5.8,3
	L345.4,513.9z M351.3,517.6l5.8-3l5.5,2.9l-0.3,5.5l-5.8,2.9l-5.5-2.9L351.3,517.6z M357.6,513.8l0.3-5.8l5.8-3l5.5,2.9l-0.3,5.8
	l-5.8,3L357.6,513.8z M363.5,517.5l5.8-3l5.5,2.9l-0.3,5.5l-5.8,2.9l-5.5-2.9L363.5,517.5z M369.8,513.8l0.3-5.8l5.8-3l5.5,2.9
	l-0.3,5.8l-5.8,3L369.8,513.8z M375.7,517.5l5.8-3l5.5,2.9l-0.3,5.5l-5.8,2.9l-5.5-2.9L375.7,517.5z M382,513.7l0.3-5.8l5.8-3
	l5.5,2.9l-0.3,5.8l-5.8,3L382,513.7z M387.9,517.4l5.8-3l5.4,2.9l-0.3,5.5l-5.8,2.9l-5.4-2.9L387.9,517.4z M394.1,513.7l0.3-5.8
	l5.8-3l5.5,2.9l-0.4,5.8l-5.8,2.9L394.1,513.7z M400,517.3l5.9-3l5.3,2.8l-0.4,5.8l-5.6,2.9l-5.5-2.9L400,517.3z M406.5,513.7
	l0.4-5.9l5.8-3l5.4,2.9l-0.4,5.7l-5.9,3L406.5,513.7z M412.4,517.3l5.8-2.9l5.4,2.9l-0.4,5.5l-5.8,2.9l-5.4-2.9L412.4,517.3z
	 M418.7,513.5l0.4-5.7l5.8-3l5.4,2.9l-0.4,5.7l-5.8,2.9L418.7,513.5z M424.5,517.2l5.8-2.9l5.4,2.9l-0.4,5.5l-5.8,2.9l-5.4-2.9
	L424.5,517.2z M430.8,513.5l0.4-5.7l5.8-3l5.4,2.9l-0.4,5.7l-5.8,2.9L430.8,513.5z M436.6,517.1l5.8-2.9l5.4,2.9l-0.4,5.5l-5.8,2.9
	l-5.4-2.9L436.6,517.1z M442.9,513.4l0.4-5.7l5.8-3l5.4,2.9l-0.5,5.7l-5.8,2.9L442.9,513.4z M448.6,517.1l5.8-2.9l5.3,2.9l-0.5,5.5
	l-5.8,2.9l-5.3-2.9L448.6,517.1z M455,513.3l0.5-5.7l5.8-3l5.4,2.9l-0.5,5.7l-5.8,2.9L455,513.3z M460.7,517l5.8-2.9l5.3,2.9
	l-0.5,5.5l-5.8,2.9l-5.3-2.9L460.7,517z M467,513.3l0.5-5.7l5.8-3l5.3,2.9l-0.5,5.7l-5.8,2.9L467,513.3z M472.7,516.9l5.8-2.9
	l5.3,2.9l-0.5,5.5l-5.8,2.9l-5.3-2.9L472.7,516.9z M479.1,513.2l0.5-5.7l5.9-3l5.3,2.9l-0.5,5.7l-5.8,2.9L479.1,513.2z M484.7,516.9
	l5.8-2.9l5.3,2.9l-0.5,5.5l-5.8,2.9l-5.3-2.9L484.7,516.9z M491.1,513.1l0.5-5.7l5.9-3l5.3,2.9l-0.6,5.7l-5.8,2.9L491.1,513.1z
	 M498.2,497.1l-5.3-2.9l0.5-5.6l5.9-3l5.3,2.9l-0.6,5.6L498.2,497.1z M494.7,475.2l0.5-5.8l5.9-3l5.4,3l-0.6,5.8l-5.9,3L494.7,475.2
	z M501.9,458.9l-5.4-3l0.5-5.8l6-3.1l5.4,3l-0.6,5.8L501.9,458.9z M498.3,436.4l0.6-6.1l6-3.1l5.4,3.1l-0.6,6.1l-6,3.1L498.3,436.4z
	 M505.7,419.5l-5.5-3.1l0.6-5.9l6.1-3.1l5.5,3.1l-0.6,5.9L505.7,419.5z M507.1,400.4l-0.6,6l-6.1,3.1l-5.5-3.1l0.6-6l6.1-3.2
	L507.1,400.4z M490.1,390.1l6.1-3.2l5.5,3.2l-0.6,6.2l-6.1,3.2l-5.5-3.2L490.1,390.1z M494.6,400.4l-0.5,6l-6.1,3.1l-5.5-3.1l0.5-6
	l6.1-3.2L494.6,400.4z M477.5,390.1l6.1-3.2l5.5,3.2l-0.6,6.2l-6.1,3.2l-5.5-3.2L477.5,390.1z M482,400.4l-0.5,6l-6.1,3.1l-5.5-3.1
	l0.5-6l6.1-3.2L482,400.4z M464.9,390.1l6.1-3.2l5.6,3.2l-0.5,6.2l-6.1,3.2l-5.6-3.2L464.9,390.1z M469.5,400.3l-0.5,6l-6.1,3.1
	l-5.6-3.2l0.5-6l6.1-3.2L469.5,400.3z M452.3,390l6.1-3.2l5.6,3.2l-0.5,6.2l-6.1,3.2l-5.6-3.2L452.3,390z M456.9,400.3l-0.5,6
	l-6.1,3.1l-5.6-3.2l0.4-6l6.1-3.2L456.9,400.3z M439.7,390l6.1-3.2l5.6,3.2l-0.5,6.3l-6.1,3.2l-5.6-3.2L439.7,390z M444.3,400.3
	l-0.4,6l-6,3.1l-5.6-3.2l0.4-6l6.1-3.2L444.3,400.3z M427,390l6.1-3.2l5.6,3.2l-0.4,6.3l-6.1,3.2l-5.6-3.2L427,390z M431.7,400.3
	l-0.4,6l-6,3.2l-5.6-3.2l0.4-6l6.1-3.2L431.7,400.3z M414.3,390l6.1-3.2l5.7,3.2l-0.4,6.3l-6.2,3.2l-5.6-3.1L414.3,390z
	 M418.8,400.2l-0.4,6.3l-5.9,3.1l-5.8-3.2l0.4-6l6.2-3.2L418.8,400.2z M401.4,390l6.1-3.2l5.7,3.2l-0.4,6.3l-6.1,3.2l-5.7-3.2
	L401.4,390z M406.2,400.3l-0.4,6l-6,3.2l-5.7-3.2l0.3-6l6-3.2L406.2,400.3z M388.6,389.9l6.1-3.2l5.7,3.2l-0.4,6.3l-6.1,3.2
	l-5.7-3.2L388.6,389.9z M393.5,400.3l-0.3,6l-6,3.2l-5.7-3.2l0.3-6l6-3.2L393.5,400.3z M375.9,389.9l6.1-3.2l5.7,3.2l-0.3,6.3
	l-6,3.2l-5.7-3.2L375.9,389.9z M380.8,400.3l-0.3,6l-6,3.2l-5.7-3.2l0.3-6l6-3.2L380.8,400.3z M363.2,389.9l6.1-3.2l5.8,3.2
	l-0.3,6.3l-6,3.2l-5.7-3.2L363.2,389.9z M368.1,400.3l-0.3,6l-6,3.2l-5.7-3.2l0.3-6l6-3.2L368.1,400.3z M350.4,389.9l6.1-3.2
	l5.8,3.2l-0.3,6.3l-6,3.2l-5.8-3.2L350.4,389.9z M355.4,400.2l-0.3,6l-6,3.2l-5.8-3.2l0.2-6l6-3.2L355.4,400.2z M337.6,389.9l6-3.2
	l5.8,3.2l-0.3,6.3l-6,3.2l-5.8-3.2L337.6,389.9z M342.7,400.2l-0.2,6l-6,3.2l-5.8-3.2l0.2-6l6-3.2L342.7,400.2z M324.8,389.8l6-3.2
	l5.8,3.2l-0.2,6.3l-6,3.2l-5.8-3.2L324.8,389.8z M329.9,400.2l-0.2,6l-6,3.2l-5.8-3.2l0.2-6l6-3.2L329.9,400.2z M312,389.8l6-3.2
	l5.8,3.2l-0.2,6.3l-6,3.2l-5.8-3.2L312,389.8z M317.2,400.2l-0.2,6l-6,3.2l-5.8-3.2l0.1-6.1l6-3.2L317.2,400.2z M299.1,389.8l6-3.2
	l5.9,3.2l-0.2,6.3l-6,3.2l-5.9-3.2L299.1,389.8z M304.4,400.2l-0.1,6.1l-6,3.2l-5.8-3.2l0.1-6.1l6-3.2L304.4,400.2z M286.3,389.8
	l6-3.2l5.9,3.2l-0.1,6.3l-6,3.2l-5.9-3.2L286.3,389.8z M291.6,400.2l-0.1,6.1l-6,3.2l-5.9-3.2l0.1-6.1l6-3.2L291.6,400.2z
	 M273.4,389.8l6-3.2l5.9,3.2l-0.1,6.3l-6,3.2l-5.9-3.2L273.4,389.8z M278.7,400.2l-0.1,6.1l-6,3.2l-5.9-3.2l0.1-6.1l6-3.2
	L278.7,400.2z M260.5,389.8l6-3.2l5.9,3.2l-0.1,6.3l-6,3.2l-5.9-3.2L260.5,389.8z M265.9,400.2l-0.1,6.1l-6,3.2l-5.9-3.2l0-6.1
	l6-3.2L265.9,400.2z M247.6,389.7l6-3.2l6,3.2l-0.1,6.3l-6,3.2l-6-3.2L247.6,389.7z M253,400.1l0,6.1l-6,3.2l-5.9-3.2l0-6.1l6-3.2
	L253,400.1z M234.7,389.7l6-3.2l6,3.2l0,6.3l-6,3.2l-6-3.2L234.7,389.7z M240.2,400.1l0,6.1l-6,3.2l-6-3.2l0-6.1l6-3.2L240.2,400.1z
	 M221.7,389.7l6-3.2l6,3.2l0,6.3l-6,3.2l-6-3.2L221.7,389.7z M227.3,400.1l0,6.1l-5.9,3.2l-6-3.2l0-6.1l6-3.2L227.3,400.1z
	 M208.7,389.7l6-3.2l6,3.2l0,6.3l-6.1,3.3l-5.9-3.2L208.7,389.7z M214.1,400l0.1,6.3l-5.8,3.1l-6.2-3.3l-0.1-6.1l6.1-3.3L214.1,400z
	 M195.5,389.7l6-3.2l6.1,3.2l0.1,6.3l-6,3.2l-6-3.2L195.5,389.7z M201.1,400.1l0.1,6.1l-5.9,3.2l-6-3.2l-0.1-6.1l6-3.2L201.1,400.1z
	 M182.5,389.6l6-3.2l6.1,3.2l0.1,6.3l-6,3.2l-6.1-3.2L182.5,389.6z M188.2,400.1l0.1,6.1l-5.9,3.2l-6.1-3.2l-0.1-6.1l5.9-3.2
	L188.2,400.1z M169.4,389.6l6-3.2l6.1,3.3l0.1,6.3l-5.9,3.2l-6.1-3.2L169.4,389.6z M175.2,400.1l0.1,6.1l-5.9,3.2l-6.1-3.2l-0.2-6.1
	l5.9-3.2L175.2,400.1z M156.4,389.6l6-3.2l6.1,3.3l0.2,6.4l-5.9,3.2l-6.1-3.2L156.4,389.6z M162.2,400.1l0.2,6.1l-5.9,3.2l-6.1-3.2
	l-0.2-6.1l5.9-3.2L162.2,400.1z M143.3,389.6l6-3.2l6.1,3.3l0.2,6.4l-5.9,3.2l-6.1-3.2L143.3,389.6z M149.2,400.1l0.2,6.1l-5.9,3.2
	l-6.1-3.2l-0.2-6.1l5.9-3.2L149.2,400.1z M130.2,389.6l5.9-3.2l6.2,3.3l0.2,6.4l-5.9,3.2l-6.2-3.2L130.2,389.6z M136.2,400l0.2,6.1
	l-5.9,3.2l-6.2-3.2l-0.2-6.1l5.9-3.2L136.2,400z M117.1,389.5l5.9-3.2l6.2,3.3l0.2,6.4l-5.9,3.2l-6.2-3.2L117.1,389.5z M123.2,400
	l0.2,6.1l-5.9,3.2l-6.2-3.2l-0.3-6.1l5.9-3.2L123.2,400z M104.3,396l-0.3-6.5l5.9-3.2l6.2,3.3l0.3,6.4l-6,3.3L104.3,396z
	 M105.3,416.5l-0.3-6.4l5.7-3.1l6.4,3.3l0.3,6.1l-6,3.2L105.3,416.5z M106.3,437l-0.3-6.3l5.8-3.2l6.1,3.2l0.3,6.2l-5.9,3.2
	L106.3,437z M107.2,456.9l-0.3-6.2l5.6-3l6.3,3.2l0.3,5.9l-5.9,3.2L107.2,456.9z M108.1,476.6l-0.3-6.1l5.7-3l6.1,3.1l0.3,5.9
	l-5.9,3.1L108.1,476.6z M109,496l-0.3-6l5.5-3l6.2,3.1l0.2,5.7l-5.8,3.1L109,496z M110,515.3l-0.3-5.9l5.7-3l5.9,3l0.3,5.8l-5.8,3
	L110,515.3z M110.8,534.1l-0.3-5.9l5.5-2.9l6.1,3l0.2,5.6l-5.7,3L110.8,534.1z M129,543.3l-5.6,2.9l-5.9-2.9l-0.3-5.7l5.6-3l5.9,2.9
	L129,543.3z M123.3,533.9l-0.2-5.6l5.6-3l5.9,2.9l0.2,5.6l-5.6,3L123.3,533.9z M141.3,543.2l-5.6,2.9l-5.8-2.9l-0.2-5.7l5.6-3
	l5.9,2.9L141.3,543.2z M135.7,533.8l-0.2-5.6l5.7-3l5.9,2.9l0.2,5.6l-5.6,3L135.7,533.8z M153.7,543.1l-5.6,2.9l-5.8-2.9l-0.2-5.7
	l5.6-3l5.8,2.9L153.7,543.1z M148.1,533.7l-0.2-5.6l5.7-3l5.8,2.9l0.2,5.6l-5.6,3L148.1,533.7z M166,543l-5.6,2.9l-5.8-2.9l-0.2-5.7
	l5.6-3l5.8,2.9L166,543z M160.5,533.7l-0.2-5.6l5.7-3l5.8,2.9l0.1,5.6l-5.7,3L160.5,533.7z M178.4,543l-5.6,2.9l-5.8-2.9l-0.1-5.7
	l5.7-3l5.8,2.9L178.4,543z M172.9,533.6l-0.1-5.6l5.7-3l5.8,2.9l0.1,5.6l-5.7,2.9L172.9,533.6z M190.7,542.9l-5.6,2.9l-5.8-2.9
	l-0.1-5.7l5.7-2.9l5.8,2.9L190.7,542.9z M185.2,533.5l-0.1-5.6l5.7-3l5.8,2.9l0.1,5.5l-5.7,2.9L185.2,533.5z M203,542.8l-5.6,2.9
	l-5.7-2.9l-0.1-5.7l5.7-2.9l5.7,2.9L203,542.8z M197.6,533.4l-0.1-5.5l5.7-3l5.8,2.9l0.1,5.5l-5.7,2.9L197.6,533.4z M215.2,542.7
	l-5.7,2.9l-5.7-2.8l-0.1-5.7l5.8-3l5.6,2.8L215.2,542.7z M210.2,533.4l-0.1-5.8l5.6-2.9l5.9,3l0,5.5l-5.8,3L210.2,533.4z
	 M227.8,542.6l-5.7,2.9l-5.7-2.8l0-5.7l5.7-2.9l5.7,2.9L227.8,542.6z M222.5,533.3l0-5.5l5.7-3l5.7,2.9l0,5.5l-5.7,2.9L222.5,533.3z
	 M240,542.5l-5.7,2.9l-5.7-2.8l0-5.7l5.7-2.9l5.7,2.9L240,542.5z M234.8,533.2l0-5.5l5.7-3l5.7,2.9l0,5.5l-5.7,2.9L234.8,533.2z
	 M252.2,542.5l-5.7,2.9l-5.7-2.8l0-5.7l5.7-2.9l5.7,2.9L252.2,542.5z M247,533.1l0-5.5l5.7-3l5.7,2.9l0,5.5l-5.7,2.9L247,533.1z
	 M264.4,542.4l-5.7,2.9l-5.6-2.8l0-5.7l5.7-2.9l5.6,2.9L264.4,542.4z M259.3,533l0-5.5l5.7-3l5.6,2.9l-0.1,5.5l-5.7,2.9L259.3,533z
	 M276.6,542.3l-5.7,2.9l-5.6-2.8l0.1-5.7l5.7-2.9l5.6,2.9L276.6,542.3z M271.5,532.9l0.1-5.5l5.7-3l5.6,2.9l-0.1,5.5l-5.7,2.9
	L271.5,532.9z M288.8,542.2l-5.7,2.9l-5.6-2.8l0.1-5.7l5.7-2.9l5.6,2.9L288.8,542.2z M283.8,532.9l0.1-5.5l5.7-2.9l5.6,2.9l-0.1,5.5
	l-5.7,2.9L283.8,532.9z M301,542.1l-5.7,2.9l-5.6-2.8l0.1-5.7l5.7-2.9l5.6,2.9L301,542.1z M296,532.8l0.1-5.5l5.7-2.9l5.6,2.9
	l-0.1,5.5l-5.7,2.9L296,532.8z M313.1,542l-5.7,2.9l-5.5-2.8l0.1-5.7l5.7-2.9l5.6,2.9L313.1,542z M308.2,532.7l0.1-5.5l5.7-2.9
	l5.6,2.9l-0.2,5.5l-5.7,2.9L308.2,532.7z M325.2,541.9l-5.7,2.9L314,542l0.2-5.7l5.7-2.9l5.5,2.9L325.2,541.9z M320.3,532.6l0.2-5.5
	l5.7-2.9l5.5,2.9l-0.2,5.5l-5.7,2.9L320.3,532.6z M337.3,541.9l-5.7,2.9l-5.5-2.8l0.2-5.7l5.7-2.9l5.5,2.9L337.3,541.9z
	 M332.5,532.6l0.2-5.5l5.7-2.9l5.5,2.9l-0.2,5.5l-5.7,2.9L332.5,532.6z M349.4,541.8l-5.7,2.9l-5.5-2.8l0.2-5.7l5.7-2.9l5.5,2.8
	L349.4,541.8z M344.7,532.5l0.2-5.5l5.8-2.9l5.5,2.9l-0.2,5.5l-5.7,2.9L344.7,532.5z M361.5,541.7l-5.7,2.9l-5.5-2.8l0.2-5.6
	l5.7-2.9l5.5,2.8L361.5,541.7z M356.8,532.4l0.2-5.5l5.8-2.9l5.5,2.9l-0.3,5.5l-5.7,2.9L356.8,532.4z M373.6,541.6l-5.7,2.9
	l-5.4-2.8l0.3-5.6l5.7-2.9l5.5,2.8L373.6,541.6z M368.9,532.3l0.3-5.5l5.8-2.9l5.5,2.9l-0.3,5.5l-5.7,2.9L368.9,532.3z M385.6,541.5
	l-5.7,2.9l-5.4-2.8l0.3-5.6l5.7-2.9l5.4,2.8L385.6,541.5z M381,532.2l0.3-5.5l5.8-2.9l5.4,2.9l-0.3,5.5l-5.8,2.9L381,532.2z
	 M397.6,541.4l-5.7,2.9l-5.4-2.8l0.3-5.6l5.8-2.9l5.4,2.8L397.6,541.4z M393.1,532.2l0.3-5.5l5.8-2.9l5.4,2.9l-0.3,5.5l-5.8,2.9
	L393.1,532.2z M409.7,541.4l-5.7,2.9l-5.4-2.8l0.3-5.6l5.9-3l5.3,2.8L409.7,541.4z M405.4,532.2l0.4-5.7l5.6-2.9l5.5,2.9l-0.4,5.5
	l-5.9,3L405.4,532.2z M421.9,541.3l-5.7,2.9l-5.4-2.8l0.4-5.6l5.8-2.9l5.4,2.8L421.9,541.3z M417.4,532l0.4-5.5l5.8-2.9l5.4,2.9
	l-0.4,5.5l-5.8,2.9L417.4,532z M433.9,541.2l-5.8,2.9l-5.3-2.8l0.4-5.6l5.8-2.9l5.4,2.8L433.9,541.2z M429.5,531.9l0.4-5.5l5.8-2.9
	l5.4,2.9l-0.4,5.5l-5.8,2.9L429.5,531.9z M445.9,541.1l-5.8,2.9l-5.3-2.8l0.4-5.6l5.8-2.9l5.3,2.8L445.9,541.1z M441.5,531.9
	l0.4-5.5l5.8-2.9l5.3,2.9l-0.4,5.5l-5.8,2.9L441.5,531.9z M457.8,541l-5.8,2.9l-5.3-2.8l0.4-5.6l5.8-2.9l5.3,2.8L457.8,541z
	 M453.5,531.8l0.4-5.5l5.8-2.9l5.3,2.9l-0.5,5.5l-5.8,2.9L453.5,531.8z M469.7,540.9l-5.8,2.9l-5.3-2.8l0.5-5.6l5.8-2.9l5.3,2.8
	L469.7,540.9z M465.5,531.7l0.5-5.5l5.8-2.9l5.3,2.9l-0.5,5.5l-5.8,2.9L465.5,531.7z M481.7,540.9l-5.8,2.9l-5.3-2.8l0.5-5.6
	l5.8-2.9l5.3,2.8L481.7,540.9z M477.4,531.6l0.5-5.5l5.8-2.9l5.3,2.9l-0.5,5.5l-5.8,2.9L477.4,531.6z M493.6,540.8l-5.8,2.9
	l-5.2-2.8l0.5-5.6l5.8-2.9l5.3,2.8L493.6,540.8z M489.4,531.6l0.5-5.5l5.8-2.9l5.3,2.8l-0.5,5.5l-5.8,2.9L489.4,531.6z M506,535
	l-0.6,5.7l-5.8,2.9l-5.2-2.8l0.5-5.6l5.9-3L506,535z M507.9,516.6l-0.6,5.8l-5.6,2.8l-5.4-2.9l0.5-5.5l5.9-3L507.9,516.6z
	 M509.8,497.8l-0.6,5.9l-5.9,3l-5.3-2.9l0.6-5.8l6-3L509.8,497.8z M511.7,478.9l-0.6,5.9l-5.7,2.9l-5.5-3l0.5-5.7l6-3.1L511.7,478.9
	z M513.6,459.6l-0.6,6l-5.9,3l-5.4-3l0.6-5.8l6.1-3.1L513.6,459.6z M515.6,440.2l-0.6,6.1l-5.8,3l-5.6-3.1l0.6-5.8l6.1-3.1
	L515.6,440.2z M517.6,420.3l-0.6,6.2l-6,3.1l-5.4-3.1l0.6-6.1l6.2-3.2L517.6,420.3z M513.1,409.6l-5.6-3.2l0.6-6l6.2-3.2l5.4,3.1
	l-0.6,6.3L513.1,409.6z"/>
<path class="st0" d="M75.5,558l4.9,2.2l4.4-6.7l4.3,2.2l3.9-6.2l3.9,2.2l3.4-5.7l3.5,2.1l3.3-5.7l-0.3-7.8l-3.3-2.4l-0.2-6.5l3-4.6
	l-0.3-7.6l-3.3-2.8l-0.2-6.6l3-4l-0.3-7.4l-3.3-3.3l-0.2-6.2l3-3.4l-0.3-7.2l-3.2-3.7l-0.2-6.1l3-2.8l-0.3-7.1l-3.2-4.1l-0.2-5.9
	l3-2.3l-0.3-6.9l-3.2-4.5l-0.2-6l2.9-1.7l-0.3-6.7l-3.2-4.9l-0.2-5.6l2.9-1.2l-0.3-6.6l-3.1-5.2l-0.2-6.1l-3.5-6l-3.2,0.6l-3.6-6
	l-3.6,0.5l-4-6.4l-4,0.4l-4.4-6.9 M73.4,470.5l0.1,7.4 M73.5,454.4l4.3,4.5l0.2,7.2l-4.2,3.4 M74.1,470.6l4.1-3.4l4.1,4.1l0.2,7
	l-3.9,3.7l-4.3-3.9L74.1,470.6z M78.6,466.2l-0.2-7.2l3.9-3l3.9,4.2l0.2,6.8l-3.7,3.2L78.6,466.2z M83,471.3l3.7-3.2l3.7,3.8
	l0.2,6.6l-3.5,3.5l-3.9-3.7L83,471.3z M86.9,467.1l-0.2-6.8l3.4-2.8l3.5,3.9l0.2,6.5l-3.3,3.1L86.9,467.1z M86.3,444.8l-0.2-6.5
	l3.4-2.2l3.4,4.4l0.2,6.2l-3.3,2.4L86.3,444.8z M89.7,450l0.2,6.6l-3.5,2.8l-3.8-4.2l-0.2-6.9l3.6-2.6L89.7,450z M85.7,444.7
	l-3.6,2.5l-4-4.6l-0.2-6.9l3.8-2.3l3.8,4.7L85.7,444.7z M81.8,448.1L82,455l-3.9,2.9l-4.3-4.5l-0.1-7.3l4.1-2.6L81.8,448.1z
	 M73,430.5l4.3,5l0.2,6.9l-4.1,2.6 M73,446l0.1,7.3 M73.9,495.7l0.2,7.9 M74,479.1l4.4,3.9l0.2,7.3l-4.2,4.2 M74.6,495.6l4.2-4.2
	l4.1,3.5l0.2,7.4l-4,4.5l-4.4-3.4L74.6,495.6z M79.1,490.3l-0.2-7.3l3.9-3.7l3.9,3.7L87,490l-3.7,3.9L79.1,490.3z M83.6,494.9
	l3.7-3.9l3.7,3.4l0.2,7l-3.5,4.2l-3.9-3.2L83.6,494.9z M87.6,489.9l-0.2-6.9l3.5-3.5l3.5,3.5l0.2,6.5l-3.3,3.7L87.6,489.9z
	 M91.6,494.2l3.3-3.7l3.3,3.2l0.2,6.6l-3.1,3.9l-3.5-3L91.6,494.2z M91.1,478.5l-0.2-6.6l3.3-3.1l3.3,3.6l0.2,6.3l-3.1,3.3
	L91.1,478.5z M97,457.9l-3.1,2.7l-3.5-4l-0.2-6.5l3.2-2.5l3.3,4L97,457.9z M89.8,435.2l-0.2-6.2l3.2-1.9l3.3,4.4l0.2,6l-3.1,2.1
	L89.8,435.2z M92.5,426.1l-3.2,1.9l-3.6-4.7l-0.2-6.5l3.4-1.6l3.4,4.8L92.5,426.1z M89.1,428.8l0.2,6.3l-3.4,2.2l-3.8-4.7l-0.2-6.6
	l3.6-1.9L89.1,428.8z M85.1,423l-3.6,1.9l-4-5.1l-0.2-6.9l3.8-1.6l3.8,5.1L85.1,423z M81.2,425.7l0.2,6.6l-3.9,2.2l-4.2-5l-0.1-7
	l4.1-1.9L81.2,425.7z M72.5,407.1l4.2,5.5l0.2,6.9l-4.1,1.9 M72.5,422.3l0.1,7 M74.4,522l0.2,7.9 M74.5,504.6l4.4,3.3l0.2,7.8
	l-4.3,5 M75.2,521.8l4.2-5.1l4.2,3l0.2,7.4l-4,5.3l-4.4-2.7L75.2,521.8z M79.7,515.5l-0.2-7.7l4-4.5l3.9,3.2l0.2,7.3l-3.8,4.7
	L79.7,515.5z M84.2,519.5l3.7-4.7l3.7,2.8l0.2,7l-3.5,4.9l-4-2.6L84.2,519.5z M88.2,513.7l-0.2-7.3l3.5-4.2l3.5,3l0.2,6.9l-3.3,4.4
	L88.2,513.7z M92.3,517.5l3.3-4.4l3.4,2.7l0.2,6.6L96,527l-3.6-2.5L92.3,517.5z M95.8,512.1l-0.2-6.9l3.1-3.9l3.2,2.9l0.2,6.6
	l-3,4.1L95.8,512.1z M95.1,489.6l-0.2-6.5l3.1-3.3l3.2,3.3l0.2,6.2l-3,3.5L95.1,489.6z M94.4,468l-0.2-6.4l3.1-2.7l3.2,3.7l0.2,6.1
	l-2.9,2.9L94.4,468z M93.7,446.8l-0.2-6.2l3.1-2.2l3.1,4.1l0.2,5.9l-2.9,2.4L93.7,446.8z M93,426.3l-0.2-6.2l3-1.6L99,423l0.2,5.9
	l-2.9,1.8L93,426.3z M92.4,406l-0.2-5.9l3-1.1l3.1,4.8l0.2,5.6l-2.9,1.3L92.4,406z M95.4,411.6l0.2,6l-3,1.6l-3.4-4.8l-0.2-6.3
	l3.2-1.3L95.4,411.6z M91.9,405.8l-3.2,1.3l-3.6-5.1l-0.2-6.2l3.4-1l3.4,5.2L91.9,405.8z M88.4,407.8l0.2,6.3l-3.4,1.6l-3.8-5.1
	l-0.2-6.6l3.6-1.3L88.4,407.8z M84.6,401.6l-3.6,1.3l-3.9-5.5l-0.1-6.5l3.8-1l3.7,5.5L84.6,401.6z M80.7,403.6l0.2,6.6l-3.8,1.6
	l-4.2-5.5l-0.1-7l4-1.2L80.7,403.6z M72.1,384.5l4.2,6l0.1,6.5l-4,1.2 M72.1,399l0.1,7 M75,548.7l0.2,8.4 M75,531l4.5,2.7l0.2,7.8
	l-4.3,6 M84.4,552.7l-4.1,6.2l-4.5-2l-0.2-8.4l4.3-6l4.2,2.3L84.4,552.7z M80.3,541.2l-0.2-7.7l4-5.3l4,2.6l0.2,7.3l-3.8,5.5
	L80.3,541.2z M92.6,548.7l-3.6,5.7l-4-2l-0.2-7.8l3.8-5.5l3.8,2.3L92.6,548.7z M88.9,537.8l-0.2-7.3l3.5-4.9l3.6,2.5L96,535
	l-3.4,5.1L88.9,537.8z M100,545.2l-3.2,5.3l-3.6-2L93,541l3.3-5.1l3.4,2.2L100,545.2z M96.6,534.8l-0.2-6.9l3.1-4.6l3.2,2.4l0.2,6.5
	l-3,4.7L96.6,534.8z M106.3,535.3l0.3,6.8l-2.8,4.9l-3.2-2l-0.2-7l3-4.8L106.3,535.3z M105.5,514l0.3,6.6l-2.7,4.2l-3.3-2.5
	l-0.2-6.6l3-4.2L105.5,514z M104.7,493.1l0.2,6.4l-2.8,3.7l-3.2-2.9l-0.2-6.6l3-3.6L104.7,493.1z M103.9,472.9l0.2,6.3l-2.7,3
	l-3.3-3.4l-0.2-6.2l3-3L103.9,472.9z M103.2,453.1l0.2,6.1l-2.7,2.6l-3.2-3.8l-0.2-6.2l3-2.4L103.2,453.1z M102.4,433.9l0.2,6
	l-2.7,2l-3.2-4.2l-0.2-5.9l2.9-1.9L102.4,433.9z M101.7,414.8l0.2,5.8l-2.7,1.6l-3.1-4.5l-0.2-6l2.9-1.4L101.7,414.8z M101,396.5
	l0.2,5.7l-2.6,1.1l-3.2-5l-0.2-5.7l2.9-0.9L101,396.5z M91.6,380.6l3-0.6l3.1,5.1l0.2,5.7l-2.9,0.9l-3.2-5.2L91.6,380.6z
	 M94.8,392.4l0.2,5.7l-3,1.1l-3.4-5.2l-0.2-5.9l3.2-0.8L94.8,392.4z M84.4,375.3l3.3-0.5l3.4,5.5l0.2,5.9l-3.2,0.8l-3.5-5.5
	L84.4,375.3z M87.8,387.7l0.2,5.9l-3.4,1l-3.7-5.5l-0.2-6.2l3.5-0.7L87.8,387.7z M76.4,369.3l3.7-0.4l3.7,5.9l0.2,6.2l-3.5,0.7
	l-3.9-6L76.4,369.3z M80.2,382.4l0.2,6.3l-3.8,0.9l-4.1-6l-0.1-6.6l4-0.6L80.2,382.4z M71.7,362.4l4.1,6.4l0.1,6.5l-4,0.6
	 M71.6,376.6l0.1,6.6"/>
<path class="st0" d="M540.3,558l-4.1,2.2l-3.7-6.7l-3.7,2.2l-3.3-6.2l-3.3,2.2l-2.9-5.7l-3,2.1l-2.8-5.7l0.3-7.8l2.8-2.4l0.2-6.5
	l-2.6-4.6l0.2-7.6l2.8-2.8l0.2-6.6l-2.6-4l0.2-7.4l2.8-3.3l0.2-6.2l-2.5-3.4l0.2-7.2l2.7-3.7l0.2-6.1l-2.5-2.8l0.2-7.1l2.7-4.1
	l0.2-5.9l-2.5-2.3l0.2-6.9l2.7-4.5l0.2-6l-2.5-1.7l0.2-6.7l2.7-4.9l0.2-5.6l-2.5-1.2l0.2-6.6l2.7-5.2l0.2-6.1l3-6l2.7,0.6l3.1-6
	l3.1,0.5l3.4-6.4l3.4,0.4l3.7-6.9 M542,470.5l-0.1,7.4 M542,454.4l-3.6,4.5l-0.1,7.2l3.5,3.4 M541.4,470.6l-3.5-3.4l-3.5,4.1l-0.1,7
	l3.3,3.7l3.7-3.9L541.4,470.6z M537.7,466.2l0.1-7.2l-3.3-3l-3.3,4.2l-0.2,6.8l3.1,3.2L537.7,466.2z M533.9,471.3l-3.1-3.2l-3.1,3.8
	l-0.2,6.6l3,3.5l3.3-3.7L533.9,471.3z M530.6,467.1l0.2-6.8l-2.9-2.8l-2.9,3.9l-0.2,6.5l2.8,3.1L530.6,467.1z M531.1,444.8l0.2-6.5
	l-2.9-2.2l-2.9,4.4l-0.2,6.2l2.8,2.4L531.1,444.8z M528.3,450l-0.2,6.6l2.9,2.8l3.3-4.2l0.1-6.9l-3.1-2.6L528.3,450z M531.6,444.7
	l3.1,2.5l3.4-4.6l0.1-6.9l-3.3-2.3l-3.2,4.7L531.6,444.7z M534.9,448.1l-0.1,6.9l3.3,2.9l3.6-4.5l0.1-7.3l-3.5-2.6L534.9,448.1z
	 M542.4,430.5l-3.6,5l-0.1,6.9l3.5,2.6 M542.4,446l-0.1,7.3 M541.6,495.7l-0.1,7.9 M541.6,479.1l-3.7,3.9l-0.1,7.3l3.6,4.2
	 M541,495.6l-3.6-4.2l-3.5,3.5l-0.2,7.4l3.4,4.5l3.7-3.4L541,495.6z M537.2,490.3l0.1-7.3l-3.3-3.7l-3.3,3.7l-0.2,6.9l3.2,3.9
	L537.2,490.3z M533.4,494.9l-3.1-3.9l-3.1,3.4l-0.2,7l3,4.2l3.3-3.2L533.4,494.9z M530.1,489.9l0.2-6.9l-2.9-3.5l-3,3.5l-0.2,6.5
	l2.8,3.7L530.1,489.9z M526.7,494.2l-2.8-3.7l-2.8,3.2l-0.2,6.6l2.7,3.9l3-3L526.7,494.2z M527.1,478.5l0.2-6.6l-2.8-3.1l-2.8,3.6
	l-0.2,6.3l2.6,3.3L527.1,478.5z M522.1,457.9l2.6,2.7l2.9-4l0.2-6.5l-2.7-2.5l-2.8,4L522.1,457.9z M528.2,435.2l0.2-6.2l-2.7-1.9
	l-2.8,4.4l-0.2,6l2.6,2.1L528.2,435.2z M525.8,426.1l2.7,1.9l3-4.7l0.2-6.5l-2.9-1.6l-2.9,4.8L525.8,426.1z M528.8,428.8l-0.2,6.3
	l2.9,2.2l3.2-4.7l0.1-6.6l-3.1-1.9L528.8,428.8z M532.1,423l3.1,1.9l3.4-5.1l0.1-6.9l-3.2-1.6l-3.2,5.1L532.1,423z M535.4,425.7
	l-0.1,6.6l3.3,2.2l3.6-5l0.1-7l-3.4-1.9L535.4,425.7z M542.8,407.1l-3.6,5.5l-0.1,6.9l3.5,1.9 M542.8,422.3l-0.1,7 M541.2,522
	l-0.1,7.9 M541.2,504.6l-3.7,3.3l-0.1,7.8l3.6,5 M540.6,521.8l-3.6-5.1l-3.5,3l-0.2,7.4l3.4,5.3l3.8-2.7L540.6,521.8z M536.7,515.5
	l0.1-7.7l-3.4-4.5l-3.3,3.2l-0.2,7.3l3.2,4.7L536.7,515.5z M532.9,519.5l-3.2-4.7l-3.2,2.8l-0.2,7l3,4.9l3.4-2.6L532.9,519.5z
	 M529.5,513.7l0.2-7.3l-3-4.2l-3,3l-0.2,6.9l2.8,4.4L529.5,513.7z M526.1,517.5l-2.8-4.4l-2.9,2.7l-0.2,6.6l2.7,4.6l3-2.5
	L526.1,517.5z M523.1,512.1l0.2-6.9l-2.6-3.9l-2.7,2.9l-0.2,6.6l2.5,4.1L523.1,512.1z M523.7,489.6l0.2-6.5l-2.6-3.3l-2.7,3.3
	l-0.2,6.2l2.5,3.5L523.7,489.6z M524.3,468l0.2-6.4l-2.6-2.7l-2.7,3.7l-0.2,6.1l2.5,2.9L524.3,468z M524.8,446.8l0.2-6.2l-2.6-2.2
	l-2.7,4.1l-0.2,5.9l2.5,2.4L524.8,446.8z M525.4,426.3l0.2-6.2l-2.6-1.6l-2.6,4.5l-0.2,5.9l2.5,1.8L525.4,426.3z M526,406l0.2-5.9
	l-2.6-1.1l-2.6,4.8l-0.2,5.6l2.4,1.3L526,406z M523.4,411.6l-0.2,6l2.6,1.6l2.9-4.8l0.2-6.3l-2.7-1.3L523.4,411.6z M526.4,405.8
	l2.7,1.3l3-5.1l0.1-6.2l-2.8-1l-2.9,5.2L526.4,405.8z M529.3,407.8l-0.2,6.3l2.9,1.6l3.2-5.1l0.1-6.6l-3-1.3L529.3,407.8z
	 M532.6,401.6l3,1.3l3.3-5.5l0.1-6.5l-3.2-1l-3.2,5.5L532.6,401.6z M535.9,403.6l-0.1,6.6l3.2,1.6l3.5-5.5l0.1-7l-3.4-1.2
	L535.9,403.6z M543.2,384.5l-3.5,6l-0.1,6.5l3.4,1.2 M543.2,399l-0.1,7 M540.7,548.7l-0.1,8.4 M540.7,531l-3.8,2.7l-0.1,7.8l3.7,6
	 M532.7,552.7l3.4,6.2l3.8-2l0.1-8.4l-3.6-6l-3.6,2.3L532.7,552.7z M536.2,541.2l0.1-7.7l-3.4-5.3l-3.4,2.6l-0.2,7.3l3.2,5.5
	L536.2,541.2z M525.8,548.7l3,5.7l3.4-2l0.2-7.8l-3.2-5.5l-3.2,2.3L525.8,548.7z M528.9,537.8l0.2-7.3l-3-4.9l-3,2.5l-0.2,6.9
	l2.8,5.1L528.9,537.8z M519.5,545.2l2.7,5.3l3-2l0.2-7.4l-2.8-5.1l-2.9,2.2L519.5,545.2z M522.4,534.8l0.2-6.9l-2.7-4.6l-2.7,2.4
	l-0.2,6.5l2.5,4.7L522.4,534.8z M514.2,535.3L514,542l2.4,4.9l2.7-2l0.2-7l-2.6-4.8L514.2,535.3z M514.9,514l-0.2,6.6l2.3,4.2
	l2.8-2.5l0.2-6.6l-2.6-4.2L514.9,514z M515.5,493.1l-0.2,6.4l2.4,3.7l2.7-2.9l0.2-6.6l-2.5-3.6L515.5,493.1z M516.2,472.9l-0.2,6.3
	l2.3,3l2.8-3.4l0.2-6.2l-2.5-3L516.2,472.9z M516.8,453.1l-0.2,6.1l2.3,2.6l2.7-3.8l0.2-6.2l-2.5-2.4L516.8,453.1z M517.4,433.9
	l-0.2,6l2.3,2l2.7-4.2l0.2-5.9l-2.5-1.9L517.4,433.9z M518.1,414.8l-0.2,5.8l2.3,1.6l2.6-4.5l0.2-6l-2.5-1.4L518.1,414.8z
	 M518.7,396.5l-0.2,5.7l2.2,1.1l2.7-5l0.2-5.7l-2.5-0.9L518.7,396.5z M526.7,380.7l-2.5-0.6l-2.6,5.1l-0.2,5.7l2.4,0.9l2.7-5.2
	L526.7,380.7z M524,392.4l-0.2,5.7l2.6,1.1l2.9-5.2l0.2-5.9l-2.7-0.8L524,392.4z M532.8,375.3l-2.8-0.5l-2.8,5.5l-0.2,5.9l2.7,0.8
	l3-5.5L532.8,375.3z M529.8,387.7l-0.1,5.9l2.9,1l3.2-5.5l0.1-6.2l-3-0.7L529.8,387.7z M539.5,369.3l-3.2-0.4l-3.1,5.9l-0.1,6.2
	l3,0.7l3.3-6L539.5,369.3z M536.3,382.5l-0.1,6.3l3.2,0.9l3.5-6l0.1-6.6l-3.4-0.6L536.3,382.5z M543.5,362.4l-3.5,6.4l-0.1,6.5
	l3.4,0.6 M543.6,376.6l-0.1,6.6"/>
<path class="st0" d="M86.3,365.1l8.2,1.4l1.1,2.5l-6.8,1.3l1.4,2.9l7.9,1.3l1,2.3l-6.6,1.3l1.3,2.7l7.7,1.2l1.1,2.4l8.2,1.3l6.5-1.2
	l7.5,1.2l6.5-1.2l7.4,1.2l6.6-1.2l7.3,1.2l6.6-1.2l7.2,1.2l6.6-1.2l7.1,1.2l6.6-1.2l7.1,1.2l6.6-1.2l7,1.2l6.8-1.2l7,1.2l6.7-1.2
	l6.8,1.2l6.7-1.2l6.7,1.2l6.7-1.2l6.6,1.2l6.7-1.2l6.5,1.2l6.7-1.2l6.5,1.2l6.8-1.2l6.4,1.2l6.8-1.2l6.3,1.2l6.8-1.2l6.2,1.2
	l6.8-1.2l6.1,1.2l6.8-1.2l6.1,1.2l6.8-1.2l6,1.2l6.9-1.2l5.9,1.1l6.9-1.2l5.8,1.1l6.9-1.2l5.8,1.1l6.9-1.2l5.7,1.1l7.1-1.2l5.7,1.2
	l6.9-1.2l5.5,1.1l6.9-1.2l5.5,1.1l7-1.2l5.4,1.1l7-1.2l5.3,1.1l7-1.2l5.2,1.1l7-1.2l5.2,1.1l7-1.2l5.1,1.1l7.5-1.2l2.1-2.5l-5.1-1.2
	l1.8-2.1l7.2-1.2l2.2-2.6l-5.2-1.2l1.9-2.3l7.4-1.2l2.3-2.7l-5.3-1.3 M116.2,364.9l-6.4,1.3l-7.5-1.3 M110.5,366.5l6.4-1.3l7.4,1.3
	l0.9,2.5l-6.3,1.2l-7.3-1.2L110.5,366.5z M131.1,364.9l-6.4,1.3l-7.4-1.3 M125.3,366.5l6.4-1.3l7.3,1.3l0.8,2.5l-6.4,1.2l-7.2-1.2
	L125.3,366.5z M145.9,364.9l-6.4,1.3l-7.3-1.3 M140.1,366.5l6.4-1.3l7.2,1.3l0.7,2.4l-6.4,1.2l-7.1-1.2L140.1,366.5z M160.6,364.9
	l-6.5,1.3l-7.2-1.3 M154.8,366.5l6.5-1.3l7.1,1.3l0.6,2.4l-6.4,1.2l-7-1.2L154.8,366.5z M175.2,364.9l-6.5,1.3l-7.1-1.3
	 M169.4,366.5l6.5-1.2l7,1.3l0.5,2.4l-6.4,1.2l-7-1.2L169.4,366.5z M189.8,365l-6.5,1.2l-7-1.3 M183.9,366.6l6.5-1.2l6.9,1.3
	l0.4,2.4l-6.4,1.2l-6.9-1.2L183.9,366.6z M204.3,365l-6.5,1.2l-6.9-1.3 M198.4,366.6l6.6-1.3l6.7,1.2l0.3,2.5l-6.5,1.2l-6.8-1.2
	L198.4,366.6z M219.1,365l-6.7,1.3l-6.7-1.2 M213.1,366.6l6.5-1.2l6.7,1.3l0.2,2.4l-6.5,1.2l-6.7-1.2L213.1,366.6z M233.4,365
	l-6.6,1.2l-6.7-1.3 M227.4,366.6l6.6-1.2l6.6,1.2l0,2.4l-6.5,1.2l-6.6-1.2L227.4,366.6z M247.7,365l-6.6,1.2l-6.6-1.3 M241.6,366.6
	l6.6-1.2l6.5,1.2l-0.1,2.4l-6.5,1.2l-6.5-1.2L241.6,366.6z M261.9,365.1l-6.6,1.2l-6.6-1.2 M255.8,366.6l6.6-1.2l6.5,1.2l-0.2,2.4
	l-6.5,1.2l-6.4-1.2L255.8,366.6z M276,365.1l-6.6,1.2l-6.5-1.2 M269.9,366.6l6.6-1.2l6.4,1.2l-0.3,2.4l-6.5,1.2l-6.3-1.2
	L269.9,366.6z M290.1,365.1l-6.6,1.2l-6.4-1.2 M283.9,366.7l6.6-1.2l6.3,1.2l-0.4,2.4l-6.6,1.2l-6.3-1.2L283.9,366.7z M304.1,365.1
	l-6.7,1.2l-6.3-1.2 M297.9,366.7l6.6-1.2l6.2,1.2l-0.5,2.4l-6.6,1.2l-6.2-1.2L297.9,366.7z M318,365.1l-6.7,1.2l-6.2-1.2
	 M311.7,366.7l6.7-1.2l6.1,1.2l-0.6,2.4l-6.6,1.2l-6.1-1.2L311.7,366.7z M331.8,365.1l-6.7,1.2l-6.1-1.2 M325.5,366.7l6.7-1.2l6,1.2
	l-0.6,2.4l-6.6,1.2l-6-1.2L325.5,366.7z M345.6,365.2l-6.7,1.2l-6-1.2 M339.3,366.7l6.7-1.2l6,1.2l-0.7,2.4l-6.6,1.2l-5.9-1.2
	L339.3,366.7z M359.3,365.2l-6.7,1.2l-6-1.2 M352.9,366.7l6.7-1.2l5.9,1.2l-0.8,2.4l-6.6,1.2l-5.9-1.2L352.9,366.7z M372.9,365.2
	l-6.7,1.2l-5.9-1.2 M366.5,366.7l6.7-1.2l5.8,1.2l-0.9,2.3l-6.7,1.2l-5.8-1.2L366.5,366.7z M386.5,365.2l-6.8,1.2l-5.8-1.2
	 M380.1,366.8l6.7-1.2l5.7,1.2l-1,2.3l-6.7,1.2l-5.7-1.2L380.1,366.8z M400,365.2l-6.8,1.2l-5.7-1.2 M393.5,366.8l6.8-1.2l5.6,1.2
	l-1.1,2.3l-6.7,1.2l-5.6-1.2L393.5,366.8z M413.4,365.3l-6.8,1.2l-5.6-1.2 M406.9,366.8l6.8-1.2l5.6,1.2l-1.2,2.3l-6.7,1.2l-5.6-1.2
	L406.9,366.8z M426.7,365.3l-6.8,1.2l-5.6-1.2 M420.3,366.8l6.9-1.2l5.4,1.2l-1.3,2.4l-6.7,1.2l-5.5-1.2L420.3,366.8z M440.3,365.3
	l-6.9,1.2l-5.4-1.2 M433.8,366.8l6.8-1.2l5.4,1.2l-1.4,2.3l-6.7,1.2l-5.4-1.2L433.8,366.8z M453.5,365.3l-6.8,1.2l-5.4-1.2
	 M447,366.8l6.8-1.2l5.3,1.2l-1.5,2.3l-6.8,1.2l-5.3-1.2L447,366.8z M466.7,365.3l-6.8,1.2l-5.3-1.2 M460.1,366.8l6.8-1.2l5.3,1.2
	l-1.6,2.3l-6.8,1.2l-5.3-1.2L460.1,366.8z M479.8,365.3l-6.9,1.2l-5.3-1.2 M473.2,366.8l6.9-1.2l5.2,1.2l-1.6,2.3l-6.8,1.2l-5.2-1.2
	L473.2,366.8z M492.8,365.4l-6.9,1.2l-5.2-1.2 M486.2,366.9l6.9-1.2l5.1,1.2l-1.7,2.3l-6.8,1.2l-5.1-1.2L486.2,366.9z M505.8,365.4
	l-6.9,1.2l-5.1-1.2 M499.1,366.9l6.9-1.2l5,1.2l-1.8,2.3l-6.8,1.2l-5-1.2L499.1,366.9z M518.7,365.4l-6.9,1.2l-5-1.2 M512,366.9
	l6.9-1.2l5,1.2l-1.9,2.3l-6.8,1.1l-5-1.2L512,366.9z M109.4,366.5l1,2.5l-6.3,1.2l-7.4-1.2l-1.1-2.5l6.4-1.3L109.4,366.5z
	 M112.7,374.5l0.9,2.3l-6.2,1.2l-7.2-1.2l-1-2.3l6.2-1.2L112.7,374.5z M105.8,372.9l-1-2.4l6.3-1.2l7.3,1.2l0.9,2.4l-6.3,1.2
	L105.8,372.9z M113.7,374.5l6.2-1.2l7.2,1.2l0.8,2.3l-6.2,1.2l-7.1-1.2L113.7,374.5z M120.4,372.9l-0.9-2.4l6.3-1.2l7.2,1.2l0.8,2.4
	l-6.3,1.2L120.4,372.9z M128.2,374.5l6.3-1.2l7.1,1.2l0.7,2.3l-6.2,1.2l-7-1.2L128.2,374.5z M134.9,372.9l-0.8-2.4l6.3-1.2l7.1,1.2
	l0.7,2.4l-6.3,1.2L134.9,372.9z M142.6,374.5l6.3-1.2l7,1.2l0.6,2.3l-6.2,1.2l-7-1.2L142.6,374.5z M149.4,372.9l-0.7-2.4l6.4-1.2
	l7,1.2l0.6,2.4l-6.3,1.2L149.4,372.9z M157,374.5l6.3-1.2l6.9,1.2l0.5,2.3l-6.2,1.2l-6.9-1.2L157,374.5z M163.7,372.9l-0.6-2.4
	l6.4-1.2l7,1.2l0.5,2.4l-6.3,1.2L163.7,372.9z M171.2,374.4l6.3-1.2l6.8,1.2l0.4,2.2l-6.3,1.2l-6.8-1.2L171.2,374.4z M178,372.9
	l-0.5-2.4l6.4-1.2l6.9,1.2l0.4,2.4l-6.3,1.2L178,372.9z M185.4,374.4l6.3-1.2l6.7,1.2l0.3,2.2l-6.3,1.2l-6.7-1.2L185.4,374.4z
	 M192.2,372.9l-0.4-2.4l6.4-1.2l6.8,1.2l0.3,2.4l-6.4,1.2L192.2,372.9z M199.5,374.4l6.5-1.2l6.5,1.2l0.2,2.3l-6.2,1.1l-6.8-1.2
	L199.5,374.4z M206.7,373l-0.3-2.4l6.4-1.2l6.7,1.2l0.2,2.4l-6.5,1.2L206.7,373z M213.9,374.4l6.4-1.2l6.6,1.2l0.1,2.2l-6.3,1.2
	l-6.5-1.2L213.9,374.4z M220.8,372.9l-0.2-2.4l6.5-1.2l6.6,1.2l0.1,2.4l-6.4,1.2L220.8,372.9z M227.9,374.4l6.4-1.2l6.5,1.2l0,2.2
	l-6.3,1.2l-6.4-1.2L227.9,374.4z M234.8,372.9l-0.1-2.4l6.5-1.2l6.5,1.2l0,2.3l-6.4,1.2L234.8,372.9z M241.8,374.4l6.4-1.2l6.4,1.2
	l0,2.2l-6.4,1.2l-6.4-1.2L241.8,374.4z M248.7,372.9l0-2.3l6.5-1.2l6.4,1.2l-0.1,2.3l-6.4,1.2L248.7,372.9z M255.6,374.4l6.4-1.2
	l6.3,1.2l-0.1,2.2l-6.4,1.2l-6.3-1.1L255.6,374.4z M262.6,372.9l0.1-2.3l6.5-1.2l6.3,1.2l-0.2,2.3l-6.5,1.2L262.6,372.9z
	 M269.4,374.4l6.5-1.2l6.2,1.2l-0.2,2.2l-6.4,1.2l-6.2-1.1L269.4,374.4z M276.4,372.9l0.2-2.3l6.5-1.2l6.3,1.2l-0.3,2.3l-6.5,1.2
	L276.4,372.9z M283.1,374.4l6.5-1.2l6.2,1.2l-0.3,2.2l-6.4,1.2l-6.1-1.1L283.1,374.4z M290.1,372.9l0.3-2.3l6.6-1.2l6.2,1.2
	l-0.4,2.3l-6.5,1.2L290.1,372.9z M296.7,374.4l6.5-1.2l6.1,1.2l-0.4,2.2l-6.4,1.2l-6-1.1L296.7,374.4z M303.7,372.9l0.4-2.3l6.6-1.2
	l6.1,1.2l-0.5,2.3l-6.5,1.2L303.7,372.9z M310.2,374.4l6.5-1.2l6,1.2l-0.5,2.2l-6.4,1.1l-6-1.1L310.2,374.4z M317.3,372.9l0.5-2.3
	l6.6-1.2l6,1.2l-0.6,2.3l-6.5,1.2L317.3,372.9z M323.7,374.4l6.5-1.2l5.9,1.2l-0.6,2.2l-6.5,1.1l-5.9-1.1L323.7,374.4z M330.8,372.9
	l0.6-2.3l6.6-1.2l5.9,1.2l-0.7,2.3l-6.5,1.2L330.8,372.9z M337.2,374.4l6.5-1.2l5.8,1.2l-0.7,2.2l-6.5,1.1l-5.8-1.1L337.2,374.4z
	 M344.3,372.9l0.7-2.3l6.6-1.2l5.9,1.2l-0.8,2.3l-6.6,1.2L344.3,372.9z M350.5,374.4l6.6-1.2l5.8,1.2l-0.8,2.2l-6.5,1.1l-5.7-1.1
	L350.5,374.4z M357.7,372.9l0.8-2.3l6.6-1.2l5.8,1.2l-0.9,2.3l-6.6,1.2L357.7,372.9z M363.8,374.4l6.6-1.2l5.7,1.2l-0.9,2.2
	l-6.5,1.1l-5.7-1.1L363.8,374.4z M371,372.9l0.9-2.3l6.7-1.2l5.7,1.2l-1,2.3l-6.6,1.2L371,372.9z M377,374.4l6.6-1.2l5.6,1.1
	l-0.9,2.2l-6.5,1.1l-5.6-1.1L377,374.4z M384.2,372.9l1-2.3l6.7-1.2l5.6,1.2l-1,2.3l-6.6,1.2L384.2,372.9z M390.2,374.3l6.6-1.2
	l5.5,1.1l-1,2.2l-6.5,1.1l-5.5-1.1L390.2,374.3z M397.4,372.9l1.1-2.3l6.7-1.2l5.5,1.2l-1.1,2.3L403,374L397.4,372.9z M403.3,374.3
	l6.6-1.1l5.5,1.1l-1.1,2.2l-6.6,1.1l-5.4-1.1L403.3,374.3z M410.6,372.9l1.1-2.3l6.7-1.2l5.5,1.2l-1.2,2.3L416,374L410.6,372.9z
	 M416.3,374.3l6.7-1.2l5.3,1.1l-1.2,2.2l-6.4,1.1l-5.5-1.1L416.3,374.3z M423.9,372.9l1.3-2.3l6.7-1.2l5.4,1.2l-1.3,2.3l-6.8,1.2
	L423.9,372.9z M429.6,374.3l6.6-1.1l5.3,1.1l-1.3,2.1l-6.6,1.1l-5.3-1.1L429.6,374.3z M436.9,372.9l1.3-2.3l6.7-1.2l5.3,1.2
	l-1.4,2.3l-6.7,1.1L436.9,372.9z M442.5,374.3l6.7-1.1l5.2,1.1l-1.4,2.1l-6.6,1.1l-5.2-1.1L442.5,374.3z M449.8,372.9l1.4-2.3
	l6.7-1.2l5.2,1.2l-1.5,2.3L455,374L449.8,372.9z M455.3,374.3l6.7-1.1l5.2,1.1l-1.4,2.1l-6.6,1.1l-5.2-1.1L455.3,374.3z
	 M462.7,372.9l1.5-2.3l6.8-1.2l5.2,1.2l-1.6,2.3l-6.7,1.1L462.7,372.9z M468.1,374.3l6.7-1.1l5.1,1.1l-1.5,2.1l-6.6,1.1l-5.1-1.1
	L468.1,374.3z M475.5,372.9l1.6-2.3l6.8-1.2l5.1,1.2l-1.7,2.2l-6.7,1.1L475.5,372.9z M480.8,374.3l6.7-1.1l5,1.1l-1.6,2.1l-6.6,1.1
	l-5-1.1L480.8,374.3z M488.2,372.9l1.7-2.2l6.8-1.2l5,1.2l-1.7,2.2l-6.7,1.1L488.2,372.9z M493.5,374.3l6.7-1.1l5,1.1l-1.7,2.1
	l-6.6,1.1l-4.9-1.1L493.5,374.3z M500.9,372.9l1.7-2.2l6.8-1.1l5,1.2l-1.8,2.2l-6.7,1.1L500.9,372.9z M506.1,374.3l6.7-1.1l4.9,1.1
	l-1.8,2.1l-6.7,1.1l-4.9-1.1L506.1,374.3z M513.5,372.9l1.8-2.2l6.8-1.1l4.9,1.1l-1.9,2.2l-6.7,1.1L513.5,372.9z M531.5,365.4
	l-6.9,1.2l-5-1.2 M101.2,364.9l-6.5,1.3l-7.4-1.3 M91.2,373l-1.2-2.5l6.3-1.2l7.4,1.2l1.1,2.4l-6.3,1.2L91.2,373z M94.8,380.6
	l-1.1-2.3l6-1.2l7.4,1.2l1,2.2l-6.2,1.2L94.8,380.6z M116.7,384.2l-6,1.1l-7-1.1l-1-2.2l6.1-1.2l7.1,1.1L116.7,384.2z M109.1,380.5
	l-1-2.2l6.2-1.2l7.1,1.2l0.9,2.2l-6.1,1.2L109.1,380.5z M130.8,384.2l-6.1,1.1l-7-1.1l-0.9-2.2l6.1-1.2l7,1.1L130.8,384.2z
	 M123.3,380.5l-0.9-2.2l6.2-1.2l7,1.2l0.8,2.2l-6.1,1.2L123.3,380.5z M144.7,384.2l-6.1,1.1l-6.9-1.1L131,382l6.1-1.2l6.9,1.1
	L144.7,384.2z M137.5,380.5l-0.8-2.2l6.2-1.2l7,1.2l0.7,2.2l-6.2,1.2L137.5,380.5z M158.6,384.1l-6.1,1.1l-6.8-1.1l-0.7-2.2l6.1-1.2
	l6.8,1.1L158.6,384.1z M151.6,380.5l-0.7-2.2l6.2-1.2l6.9,1.2l0.6,2.2l-6.2,1.2L151.6,380.5z M172.5,384.1l-6.1,1.1l-6.7-1.1
	l-0.6-2.2l6.2-1.2l6.7,1.1L172.5,384.1z M165.6,380.4l-0.6-2.2l6.2-1.2l6.8,1.2l0.5,2.2l-6.2,1.2L165.6,380.4z M186.2,384.1
	l-6.1,1.1l-6.6-1.1l-0.5-2.2l6.2-1.2l6.7,1.1L186.2,384.1z M179.6,380.4l-0.5-2.2l6.3-1.2l6.7,1.2l0.4,2.2l-6.2,1.2L179.6,380.4z
	 M199.9,384l-6.1,1.1l-6.5-1.1l-0.4-2.2l6.2-1.2l6.6,1.1L199.9,384z M193.5,380.4l-0.4-2.2l6.3-1.2l6.6,1.2l0.3,2.2l-6.2,1.1
	L193.5,380.4z M213.6,384l-6.2,1.1L201,384l-0.3-2.2l6.3-1.2l6.4,1.1L213.6,384z M207.6,380.4l-0.3-2.3l6.2-1.1l6.7,1.2l0.2,2.2
	l-6.4,1.2L207.6,380.4z M227.4,384l-6.2,1.1l-6.4-1.1l-0.2-2.2l6.2-1.1l6.4,1.1L227.4,384z M221.4,380.3l-0.2-2.2l6.3-1.2l6.4,1.2
	l0.1,2.2l-6.3,1.1L221.4,380.3z M240.9,384l-6.2,1.1l-6.3-1.1l-0.1-2.2l6.3-1.1l6.3,1.1L240.9,384z M235.1,380.3l-0.1-2.2l6.3-1.2
	l6.4,1.1l0,2.2l-6.3,1.1L235.1,380.3z M254.4,383.9l-6.2,1.1l-6.2-1.1l0-2.2l6.3-1.1l6.3,1.1L254.4,383.9z M248.7,380.3l0-2.2
	l6.4-1.2l6.3,1.1l-0.1,2.2l-6.3,1.1L248.7,380.3z M267.7,383.9l-6.2,1.1l-6.1-1.1l0.1-2.2l6.3-1.1l6.2,1.1L267.7,383.9z
	 M262.2,380.3l0.1-2.2l6.4-1.2l6.2,1.1l-0.2,2.2l-6.3,1.1L262.2,380.3z M281,383.9l-6.2,1.1l-6.1-1.1l0.1-2.2l6.3-1.1l6.1,1.1
	L281,383.9z M275.7,380.3l0.2-2.2l6.4-1.2l6.1,1.1l-0.3,2.2l-6.3,1.1L275.7,380.3z M294.3,383.8l-6.3,1.1l-6-1.1l0.2-2.2l6.3-1.1
	l6,1.1L294.3,383.8z M289.1,380.2l0.3-2.2l6.4-1.2l6,1.1l-0.4,2.1l-6.3,1.1L289.1,380.2z M307.5,383.8l-6.3,1.1l-5.9-1.1l0.3-2.2
	l6.3-1.1l5.9,1.1L307.5,383.8z M302.5,380.2l0.4-2.1l6.4-1.1l6,1.1l-0.5,2.1l-6.4,1.1L302.5,380.2z M320.6,383.8l-6.3,1.1l-5.8-1.1
	l0.4-2.2l6.4-1.1l5.9,1.1L320.6,383.8z M315.8,380.2l0.5-2.1l6.4-1.1l5.9,1.1l-0.5,2.1l-6.4,1.1L315.8,380.2z M333.6,383.8l-6.3,1.1
	l-5.8-1.1l0.5-2.2l6.4-1.1l5.8,1.1L333.6,383.8z M329,380.2l0.5-2.1l6.5-1.1l5.8,1.1l-0.6,2.1l-6.4,1.1L329,380.2z M346.6,383.7
	l-6.3,1.1l-5.7-1.1l0.6-2.2l6.4-1.1l5.7,1.1L346.6,383.7z M342.1,380.2l0.6-2.1l6.5-1.1l5.7,1.1l-0.7,2.1l-6.4,1.1L342.1,380.2z
	 M359.5,383.7l-6.3,1.1l-5.6-1.1l0.7-2.2l6.4-1.1l5.6,1.1L359.5,383.7z M355.2,380.1l0.7-2.1l6.5-1.1l5.7,1.1l-0.8,2.1l-6.4,1.1
	L355.2,380.1z M372.4,383.7l-6.4,1.1l-5.6-1.1l0.8-2.1l6.4-1.1l5.6,1.1L372.4,383.7z M368.2,380.1l0.8-2.1l6.5-1.1l5.6,1.1l-0.9,2.1
	l-6.4,1.1L368.2,380.1z M385.2,383.6l-6.4,1.1l-5.5-1.1l0.9-2.1l6.4-1.1l5.5,1.1L385.2,383.6z M381.2,380.1l0.9-2.1l6.5-1.1l5.5,1.1
	l-1,2.1l-6.5,1.1L381.2,380.1z M397.9,383.6l-6.4,1.1l-5.4-1.1l0.9-2.1l6.4-1.1l5.4,1.1L397.9,383.6z M394.1,380.1l1-2.1l6.5-1.1
	l5.4,1.1l-1,2.1l-6.5,1.1L394.1,380.1z M410.6,383.6l-6.4,1.1l-5.3-1.1l1-2.1l6.5-1.1l5.4,1.1L410.6,383.6z M407,380.1l1.1-2.1
	l6.5-1.1l5.4,1.1l-1.1,2.1l-6.5,1.1L407,380.1z M423.2,383.6l-6.4,1.1l-5.3-1.1l1.1-2.1l6.6-1.1l5.2,1.1L423.2,383.6z M420,380.1
	l1.2-2.2l6.4-1.1l5.4,1.1l-1.2,2.1l-6.6,1.1L420,380.1z M436,383.5l-6.4,1.1l-5.2-1.1l1.2-2.1l6.5-1.1l5.2,1.1L436,383.5z
	 M432.7,380l1.2-2.1l6.6-1.1l5.2,1.1l-1.3,2.1l-6.5,1.1L432.7,380z M448.5,383.5l-6.4,1.1l-5.1-1.1l1.3-2.1l6.5-1.1l5.1,1.1
	L448.5,383.5z M445.4,380l1.3-2.1l6.6-1.1l5.2,1.1l-1.4,2.1l-6.5,1.1L445.4,380z M461,383.5l-6.5,1.1l-5.1-1.1l1.4-2.1l6.5-1.1
	l5.1,1.1L461,383.5z M458,380l1.4-2.1l6.6-1.1l5.1,1.1l-1.5,2.1l-6.5,1.1L458,380z M473.3,383.4l-6.5,1.1l-5-1l1.4-2.1l6.5-1.1
	l5,1.1L473.3,383.4z M470.5,380l1.5-2.1l6.6-1.1l5,1.1l-1.5,2.1l-6.5,1.1L470.5,380z M485.7,383.4l-6.5,1.1l-4.9-1l1.5-2.1l6.5-1.1
	l4.9,1.1L485.7,383.4z M483,380l1.5-2.1l6.6-1.1l4.9,1.1l-1.6,2.1l-6.6,1.1L483,380z M497.9,383.4l-6.5,1.1l-4.9-1l1.6-2.1l6.6-1.1
	l4.9,1.1L497.9,383.4z M495.4,379.9l1.6-2.1l6.6-1.1l4.9,1.1l-1.7,2.1l-6.6,1.1L495.4,379.9z M510.1,383.4l-6.5,1.1l-4.8-1l1.7-2.1
	l6.6-1.1l4.8,1.1L510.1,383.4z M507.8,379.9l1.7-2.1l6.7-1.1l4.8,1.1l-1.8,2.1l-6.6,1.1L507.8,379.9z M524.1,381.2l-1.8,2.1
	l-6.5,1.1l-4.7-1l1.7-2.1l6.7-1.1L524.1,381.2z M530.2,374.2l-1.9,2.2l-6.5,1.1l-5-1.1l1.8-2.1l6.9-1.1L530.2,374.2z M536.6,366.9
	l-2,2.3l-6.8,1.1l-4.9-1.2l1.9-2.3l7-1.2L536.6,366.9z"/>
<g>
	<g>
		<polygon id="SVGID_1_" class="st0" points="77.7,368.8 97.6,384.5 107.6,547.4 113.3,546.1 102.1,380.8 76.7,361 		"/>
	</g>
	<g>
		<defs>
			<polygon id="SVGID_2_" points="77.7,368.8 97.6,384.5 107.6,547.4 113.3,546.1 102.1,380.8 76.7,361 			"/>
		</defs>
		<use xlink:href="#SVGID_2_"  style="overflow:visible;fill:#F3F3F3;"/>
		<clipPath id="SVGID_3_">
			<use xlink:href="#SVGID_2_"  style="overflow:visible;"/>
		</clipPath>
		<rect x="73.9" y="358.2" class="st1" width="42.2" height="192"/>
	</g>
</g>
<path class="st0" d="M543.5,354.1c-7.8,0-459.7,0-467.3,0s-12.9,1.4-12.9,11.7s0,201.1,0,201.1h15.1V371h459.3v195.4h15.9
	c0,0,0-189,0-200.5C553.6,354.3,551.3,354.1,543.5,354.1z"/>
<g>
	<g>
		<polygon id="SVGID_5_" class="st0" points="539.4,369.1 524.3,383.8 513.2,545.8 507.2,545.8 518.4,381.4 537,361.2 		"/>
	</g>
	<g>
		<defs>
			<polygon id="SVGID_4_" points="539.4,369.1 524.3,383.8 513.2,545.8 507.2,545.8 518.4,381.4 537,361.2 			"/>
		</defs>
		<use xlink:href="#SVGID_4_"  style="overflow:visible;fill:#F3F3F3;"/>
		<clipPath id="SVGID_6_">
			<use xlink:href="#SVGID_4_"  style="overflow:visible;"/>
		</clipPath>
		<rect x="504.4" y="358.4" class="st2" width="37.9" height="190.2"/>
	</g>
</g>
<polygon class="st0" points="76.2,566.3 74.8,563.7 107.9,545.8 108.2,545.8 513.5,543.8 541.4,561.8 539.7,564.3 512.6,546.8 
	108.6,548.8 "/>
<path class="st0" d="M327.3,387.4c-161,0-212.2-1.2-218.4-1.7c-4.9-0.4-5.8-0.8-6.9-1.7c-0.3-0.3-0.6-0.5-1.4-0.8l1-2.8
	c1.3,0.5,1.8,0.9,2.3,1.3c0.4,0.4,0.8,0.7,5.2,1c6.1,0.5,57.2,1.7,218.1,1.7c128,0,165.9-1.2,178.3-1.6c2.4-0.1,3.8-0.1,4.8-0.1
	c5.3,0,9.3-2.2,9.4-2.2l1.5,2.6c-0.2,0.1-4.7,2.6-10.8,2.6c-0.9,0-2.3,0-4.7,0.1C493.3,386.2,455.4,387.4,327.3,387.4z"/>
<g>
	<defs>
		<path id="SVGID_7_" d="M406.5,478.9c0.7,2.9,1,5.7,1,8.4s-0.3,5.4-1,8.4h-6V509c-1.6,0.4-3.1,0.6-4.7,0.7c-1.5,0.1-3,0.2-4.5,0.2
			c-1.5,0-3-0.1-4.6-0.2c-1.5-0.1-3.1-0.4-4.8-0.7v-13.3H346l-1.9-3.4l30.4-65.1c2.9,0.4,5.8,1,8.6,2c2.8,0.9,5.6,2.4,8.2,4.5
			l-20.6,45.3h11.2v-12.7c1.7-0.4,3.3-0.6,4.8-0.7c1.5-0.1,3.1-0.2,4.6-0.2c1.4,0,2.9,0.1,4.5,0.2c1.5,0.1,3.1,0.4,4.7,0.7v12.7
			H406.5z M308.4,445.1c-3,0-5.3,1.8-7,5.3c-1.7,3.5-2.5,8.8-2.5,15.9c0,7,0.8,12.3,2.5,15.8c1.7,3.5,4,5.3,6.9,5.3
			c2.9,0,5.1-1.8,6.8-5.3c1.7-3.5,2.5-8.8,2.5-15.8c0-7.1-0.8-12.4-2.5-15.9C313.5,446.8,311.3,445.1,308.4,445.1z M308.6,428
			c5,0,9.4,1,13.1,2.9c3.7,2,6.7,4.6,9.1,8.1c2.4,3.4,4.2,7.5,5.3,12.1c1.1,4.7,1.7,9.7,1.7,15.1c0,5.4-0.6,10.4-1.8,15
			s-3,8.6-5.4,12c-2.4,3.4-5.5,6-9.3,8c-3.8,1.9-8.2,2.9-13.2,2.9c-5,0-9.4-1-13.1-2.9c-3.7-1.9-6.7-4.6-9.1-8
			c-2.4-3.4-4.1-7.4-5.3-12c-1.2-4.6-1.8-9.6-1.8-15c0-5.4,0.6-10.5,1.8-15.1c1.2-4.7,3-8.7,5.4-12.1c2.4-3.4,5.5-6.1,9.2-8.1
			S303.5,428,308.6,428z M270.4,478.9c0.7,2.9,1,5.7,1,8.4s-0.3,5.4-1,8.4h-6V509c-1.6,0.4-3.1,0.6-4.7,0.7c-1.5,0.1-3,0.2-4.5,0.2
			c-1.5,0-3-0.1-4.6-0.2c-1.5-0.1-3.1-0.4-4.8-0.7v-13.3h-35.9l-1.9-3.4l30.4-65.1c2.9,0.4,5.8,1,8.6,2c2.8,0.9,5.6,2.4,8.2,4.5
			l-20.6,45.3h11.2v-12.7c1.7-0.4,3.3-0.6,4.8-0.7c1.5-0.1,3.1-0.2,4.6-0.2c1.4,0,2.9,0.1,4.5,0.2c1.5,0.1,3.1,0.4,4.7,0.7v12.7
			H270.4z"/>
	</defs>
	<clipPath id="SVGID_8_">
		<use xlink:href="#SVGID_7_"  style="overflow:visible;"/>
	</clipPath>
	<rect x="206.2" y="425.4" class="st3" width="203" height="86.2"/>
</g>
<path class="st0" d="M116,335.6c11.3,0,20.5-9.3,20.5-20.8c0-11.5-9.2-20.8-20.5-20.8c-11.3,0-20.5,9.3-20.5,20.8
	C95.5,326.3,104.7,335.6,116,335.6z M102.3,304l5,0.5l1.6,7.1l-3.9,6.7l-5-0.3l-1.8-7.1L102.3,304z M114.4,299.4l5.7,1.5l2.8,8.3
	l-5.8,5l-7.7-2.6l-1.7-7.1L114.4,299.4z M130.6,312.6l0.1,7.6l-6.8,5.1l-5.4-2.4l-1.3-8.3l5.8-5.1L130.6,312.6z M110.8,325.4l7.8-2
	l0,0l5.3,2.4l0.9,4.3l-8.2,3l-5.9-2.8L110.8,325.4z M116.7,333.5l8.7-3.2l0-0.1l2.6,0.5c-3.2,2.5-7,4-11.3,4.1V333.5z M98.6,324
	l1.5-5.7l4.7,0.3l0,0l5.7,6.8l-0.1,4.6l0,0l-6.2,0.7C101.8,329,99.9,326.7,98.6,324z M134.4,322.1l-3.3-2.1l-0.1-7.2l0.1,0l2.6-5.6
	l0.6-0.2c1,2.4,1.6,5,1.6,7.8C135.8,317.4,135.3,319.8,134.4,322.1z M134,306.6l-0.5,0.2l-6.3-7.6l0.1-0.8
	C130.3,300.5,132.6,303.3,134,306.6z M127.1,298.2l-0.1,1l-6.8,1.3l-5.6-1.5l-2.5-3.8c1.3-0.3,2.6-0.4,4-0.4
	C120.1,294.8,123.9,296.1,127.1,298.2z M102.4,300.4l-0.3,3.2l-4.2,7l-1.1-0.2C97.7,306.6,99.6,303.1,102.4,300.4z"/>
<g>
	<path class="st0" d="M101.8,332.4c-31,27.1-70.3,36.4-70.3,36.4c51.5-11.3,74.6-34.6,74.6-34.6
		C104.7,333.3,101.8,332.4,101.8,332.4z"/>
	<path class="st0" d="M45.3,370.8c-0.2,0.1-0.4,0.1-0.7,0.2C44.6,371,44.9,370.9,45.3,370.8z"/>
	<path class="st0" d="M94.5,325.7c-0.7-0.3,0.6-7.4,0.6-7.4c-21.2,29.5-57.3,42-57.3,42C77.3,347.8,94.5,325.7,94.5,325.7z"/>
	<path class="st0" d="M116.6,335.7c-31,24.4-66.2,33.9-71.3,35.1c50.8-12,82.3-37.6,82.3-37.6C125,333.5,116.6,335.7,116.6,335.7z"
		/>
</g>
</svg>
