<?xml version="1.0" encoding="utf-8"?>
<!-- Generator: Adobe Illustrator 19.0.0, SVG Export Plug-In . SVG Version: 6.00 Build 0)  -->
<svg version="1.1" id="Layer_1" xmlns="http://www.w3.org/2000/svg" xmlns:xlink="http://www.w3.org/1999/xlink" x="0px" y="0px"
	 viewBox="165.7 293 293.8 276.6" style="enable-background:new 165.7 293 293.8 276.6;" xml:space="preserve">
<style type="text/css">
	.st0{fill:#F3F3F3;}
</style>
<g>
	<path class="st0" d="M361.6,441.8c2.5,1.8,6.1,4.2,10.9,7.1c4.7,2.9,9.6,6.3,14.5,10.2c4.9,3.9,9.4,8.4,13.4,13.4
		c4,5,6.4,10.5,7.2,16.5c0.8,6,0.8,12.2-0.1,18.7c-0.9,6.5-2.7,12.6-5.5,18.4c-2.7,5.7-6.5,10.9-11.4,15.4
		c-4.8,4.5-10.9,7.8-18.2,10c-7.3,2.2-14.5,3-21.6,2.6c-7.1-0.4-13.7-1.5-19.7-3.4c-6.1-1.8-11.3-4.1-15.7-6.7
		c-4.4-2.7-7.7-5.1-9.9-7.2c-4.3-4.7-7.5-7.3-9.5-8c-2-0.7-4.5-0.1-7.5,1.7c-3.2,1.3-10.5,4.6-22,9.7c-11.5,5.2-18.4,7.6-20.7,7.2
		c-2.3-0.3-7.5-3.3-15.6-8.9c-8.1-5.6-14.3-9.9-18.6-12.9c-4.2-2.8-8.5-5.9-13-9.1c-4.5-3.2-7.2-5.9-8-7.9c-0.8-2-1.1-5.5-0.7-10.5
		c0.3-5,1.3-7.9,3-8.7c1-0.5,7-3.7,18.1-9.7c11.1-6,23.6-12.5,37.6-19.5s27.6-13.5,40.8-19.5c13.2-6,22.6-9.1,28.1-9.2
		c10.7-0.7,19.4,0,26.2,2C350.5,435.5,356.5,438.3,361.6,441.8z M245.8,535.9c-0.3-3.3-0.1-6.1,0.7-8.4c0.8-2.2-0.6-4.5-4.2-6.9
		c-1.7-1.2-4.6-3.2-8.7-6.2c-4.2-3-8.5-6.1-13.1-9.2c-4.6-3.2-8.8-6-12.6-8.6c-3.8-2.6-6.3-4-7.5-4.4c-2-0.5-3.3-0.4-4,0.4
		c-0.7,0.7-1.2,2.1-1.7,4.1c-0.5,2-0.7,3.7-0.6,5c0.1,1.3,0.3,2.7,0.6,4.2c0,1.2,0.4,1.9,1.1,2.2c0.7,0.3,2.1,1.5,4.1,3.5
		c1,1,3.5,2.8,7.5,5.5c4,2.7,8.3,5.5,13,8.4c4.7,2.9,8.9,5.6,12.9,8c3.9,2.4,6.2,3.8,6.9,4.1c1.5,1.2,2.9,2,4.2,2.6
		C245.6,540.9,246.1,539.4,245.8,535.9z M217.8,361.1c-0.8-1-0.5-2.1,1-3.2c1.5-1.2,3.2-2.7,5.2-4.7c2-2,3.9-4,5.6-6
		c1.7-2,3.5-2.3,5.4-1c0.8,0.8,4.3,4.8,10.5,11.9c6.2,7.1,12.9,14.9,20.1,23.3c7.2,8.5,13.9,16.4,20,23.6
		c6.1,7.2,9.4,11.4,10.1,12.4c1.7,2.3,1.3,3.9-1,4.7c-2.3,0.8-3.9,1.2-4.7,1c-0.3,0-4.2-3.2-11.6-9.6c-7.4-6.4-15.5-13.4-24.2-21.1
		c-8.7-7.7-16.8-14.7-24.2-21.2C222.5,364.6,218.5,361.3,217.8,361.1z M330.9,482c1.5,0.8,6.5-0.7,15-4.6c8.5-3.9,12.1-6.7,10.7-8.4
		c-1-0.7-3.5-2.6-7.6-5.7c-4.1-3.2-8.5-6.5-13.4-10.1c-4.8-3.6-9.2-6.8-13.2-9.7c-4-2.9-6.2-4.6-6.7-5.1c-1.2-0.8-5.9,0.7-14.2,4.5
		c-8.3,3.8-11.9,6.3-10.7,7.5c0.5,0.5,2.7,2.4,6.7,5.6c4,3.2,8.4,6.7,13.1,10.5s9.2,7.2,13.2,10.4
		C327.9,479.9,330.3,481.7,330.9,482z M317.4,401.3c-0.3-0.3-0.8-5.4-1.5-15.1c-0.7-9.7-1.3-20.4-2-32.1
		c-0.7-11.7-1.3-22.4-1.9-32.1c-0.6-9.7-0.9-14.9-0.9-15.6c-0.3-1.2,0.5-1.6,2.4-1.4c1.9,0.2,4.3,0.4,7.1,0.4c2.8,0,5.6-0.1,8.4-0.4
		c2.7-0.3,4.1,0.8,4.1,3.1c0,1.2-0.4,6.5-1.1,15.9c-0.7,9.4-1.6,19.7-2.6,30.8c-1,11.2-1.9,21.5-2.7,31c-0.8,9.5-1.3,14.8-1.5,16
		c-0.2,2.7-1.4,3.5-3.6,2.4C319.3,403.1,317.9,402.2,317.4,401.3z M417.8,348.6c2,1.8,4.1,3.7,6.2,5.6c2.2,1.9,2.4,3.6,0.7,5.1
		c-0.8,0.8-4.8,4.4-11.9,10.6c-7.1,6.2-14.9,13-23.3,20.2c-8.5,7.2-16.4,13.9-23.6,20.1c-7.2,6.2-11.4,9.7-12.4,10.5
		c-2.2,1.7-3.7,1.3-4.6-1c-0.9-2.3-1.3-3.9-1.1-4.7c0-0.5,3.2-4.4,9.6-11.7c6.4-7.3,13.4-15.4,21.1-24.2
		c7.7-8.8,14.7-16.9,21.2-24.3c6.5-7.4,9.8-11.4,10-11.9c1-1.2,2.1-1,3.2,0.5C414.2,344.9,415.8,346.6,417.8,348.6z"/>
</g>
</svg>
